<?xml version="1.0" standalone="no"?>
<!DOCTYPE svg PUBLIC "-//W3C//DTD SVG 20010904//EN"
 "http://www.w3.org/TR/2001/REC-SVG-20010904/DTD/svg10.dtd">
<svg version="1.0" xmlns="http://www.w3.org/2000/svg"
 width="610.000000pt" height="610.000000pt" viewBox="0 0 610.000000 610.000000"
 preserveAspectRatio="xMidYMid meet">
<metadata>
Created by potrace 1.11, written by Peter Selinger 2001-2013
</metadata>
<g transform="translate(0.000000,610.000000) scale(0.100000,-0.100000)"
fill="#000000" stroke="none">
<path d="M4167 5114 c-1 -1 -29 -4 -62 -8 -33 -3 -73 -8 -90 -11 -111 -18
-172 -29 -260 -46 -96 -19 -117 -23 -214 -49 -24 -7 -51 -13 -60 -15 -33 -6
-140 -38 -276 -82 -77 -25 -144 -46 -150 -47 -5 -2 -18 -6 -27 -9 -10 -4 -26
-10 -35 -14 -10 -3 -22 -7 -28 -8 -12 -3 -143 -52 -170 -64 -65 -28 -81 -35
-90 -37 -50 -12 -570 -269 -595 -294 -3 -3 -21 -14 -40 -24 -19 -11 -75 -46
-124 -78 -49 -32 -92 -58 -95 -58 -3 0 -18 -11 -33 -25 -15 -14 -30 -25 -33
-25 -6 0 -66 -40 -75 -51 -3 -3 -48 -37 -101 -76 -54 -39 -107 -80 -119 -90
-40 -33 -57 -48 -101 -83 -77 -63 -240 -205 -310 -270 -21 -19 -67 -61 -104
-94 -36 -32 -65 -62 -65 -66 0 -4 21 -11 48 -15 57 -10 51 -9 135 -30 37 -9
73 -18 80 -19 77 -16 589 -165 642 -186 11 -5 61 -23 110 -41 50 -17 93 -34
97 -38 5 -4 -41 -55 -100 -113 -112 -111 -168 -169 -262 -278 -30 -35 -60 -68
-65 -74 -6 -6 -49 -58 -95 -116 -47 -58 -89 -110 -95 -116 -5 -6 -19 -23 -30
-38 -11 -16 -40 -54 -65 -86 -95 -124 -290 -403 -290 -416 0 -3 -11 -20 -25
-38 -14 -18 -25 -36 -25 -40 0 -4 -12 -26 -27 -49 -43 -66 -53 -81 -60 -97 -4
-8 -16 -31 -28 -50 -12 -19 -44 -78 -72 -130 -28 -52 -60 -112 -71 -132 -12
-21 -18 -38 -14 -38 4 0 3 -4 -3 -8 -11 -8 -118 -222 -111 -222 3 0 11 6 18
13 10 10 258 195 368 274 58 43 244 170 350 241 63 42 117 80 118 84 2 5 8 8
13 8 6 0 36 17 67 39 55 37 163 104 229 142 18 11 50 29 70 41 264 151 619
318 953 448 74 28 144 56 155 61 21 9 123 47 285 106 252 92 679 229 770 247
14 3 41 10 60 16 19 6 46 13 60 16 14 3 39 9 55 14 17 5 46 12 65 16 19 3 40
7 45 8 13 4 75 16 100 21 11 2 30 4 43 4 12 1 22 5 22 10 0 6 -170 110 -255
155 -11 6 -28 17 -37 25 -10 8 -18 11 -18 7 0 -3 -17 4 -37 17 -84 51 -698
347 -721 347 -5 0 -15 7 -22 15 -7 8 -18 15 -26 15 -7 0 -46 15 -86 34 -40 19
-85 38 -100 41 -16 4 -28 11 -28 15 0 5 -7 10 -16 12 -12 2 -10 10 13 35 15
18 36 42 45 54 77 98 311 309 451 406 l38 26 29 -35 c58 -70 187 -138 297
-155 91 -14 375 -5 405 13 17 11 198 12 233 3 23 -7 57 -29 83 -55 56 -56 93
-75 156 -81 99 -8 172 47 162 122 -7 56 -58 176 -93 216 -91 107 -442 446
-563 545 -19 16 -40 33 -46 39 -6 5 -30 26 -55 47 -24 20 -72 60 -107 88 l-63
52 33 30 c47 43 154 118 167 118 6 0 11 4 11 8 0 5 10 14 23 20 18 9 7 11 -56
9 -43 0 -79 -2 -80 -3z m10 -516 c12 -1 39 -85 30 -94 -3 -3 -22 3 -44 14 -45
23 -160 63 -185 65 -28 2 -21 15 10 19 24 4 157 1 189 -4z"/>
</g>
</svg>
