<?xml version="1.0" encoding="UTF-8"?>
<svg width="175px" height="175px" viewBox="565 210 175 175" version="1.1" xmlns="http://www.w3.org/2000/svg" xmlns:xlink="http://www.w3.org/1999/xlink">
    <!-- Generator: Sketch 64 (93537) - https://sketch.com -->
    <title>0.4_Onboarding_Step4</title>
    <desc>Created with Sketch.</desc>
    <defs>
        <rect id="path-1" x="0" y="0" width="218" height="680"></rect>
        <filter x="-6.7%" y="-1.8%" width="113.3%" height="104.3%" filterUnits="objectBoundingBox" id="filter-2">
            <feOffset dx="0" dy="2" in="SourceAlpha" result="shadowOffsetOuter1"></feOffset>
            <feGaussianBlur stdDeviation="4.5" in="shadowOffsetOuter1" result="shadowBlurOuter1"></feGaussianBlur>
            <feColorMatrix values="0 0 0 0 0.508718297   0 0 0 0 0.508320861   0 0 0 0 0.508320861  0 0 0 0.5 0" type="matrix" in="shadowBlurOuter1"></feColorMatrix>
        </filter>
        <rect id="path-3" x="0" y="0" width="1284" height="53"></rect>
        <filter x="-0.8%" y="-15.1%" width="101.6%" height="137.7%" filterUnits="objectBoundingBox" id="filter-4">
            <feOffset dx="0" dy="2" in="SourceAlpha" result="shadowOffsetOuter1"></feOffset>
            <feGaussianBlur stdDeviation="3" in="shadowOffsetOuter1" result="shadowBlurOuter1"></feGaussianBlur>
            <feColorMatrix values="0 0 0 0 0   0 0 0 0 0   0 0 0 0 0  0 0 0 0.5 0" type="matrix" in="shadowBlurOuter1"></feColorMatrix>
        </filter>
        <rect id="path-5" x="415.000003" y="135" width="455" height="406" rx="4"></rect>
        <filter x="-6.2%" y="-6.4%" width="112.3%" height="113.8%" filterUnits="objectBoundingBox" id="filter-6">
            <feOffset dx="0" dy="2" in="SourceAlpha" result="shadowOffsetOuter1"></feOffset>
            <feGaussianBlur stdDeviation="9" in="shadowOffsetOuter1" result="shadowBlurOuter1"></feGaussianBlur>
            <feColorMatrix values="0 0 0 0 0   0 0 0 0 0   0 0 0 0 0  0 0 0 0.191105769 0" type="matrix" in="shadowBlurOuter1"></feColorMatrix>
        </filter>
        <linearGradient x1="49.9999338%" y1="99.9998677%" x2="49.9999338%" y2="0%" id="linearGradient-7">
            <stop stop-color="#808080" stop-opacity="0.25" offset="0%"></stop>
            <stop stop-color="#808080" stop-opacity="0.12" offset="53.514%"></stop>
            <stop stop-color="#808080" stop-opacity="0.1" offset="100%"></stop>
        </linearGradient>
        <linearGradient x1="50.0000165%" y1="99.9998677%" x2="50.0000165%" y2="9.40165456e-14%" id="linearGradient-8">
            <stop stop-color="#808080" stop-opacity="0.25" offset="0%"></stop>
            <stop stop-color="#808080" stop-opacity="0.12" offset="53.514%"></stop>
            <stop stop-color="#808080" stop-opacity="0.1" offset="100%"></stop>
        </linearGradient>
        <linearGradient x1="50.000021%" y1="99.9998317%" x2="50.000021%" y2="0%" id="linearGradient-9">
            <stop stop-color="#808080" stop-opacity="0.25" offset="0%"></stop>
            <stop stop-color="#808080" stop-opacity="0.12" offset="53.514%"></stop>
            <stop stop-color="#808080" stop-opacity="0.1" offset="100%"></stop>
        </linearGradient>
        <linearGradient x1="50.000021%" y1="99.9998317%" x2="50.000021%" y2="-1.19552917e-13%" id="linearGradient-10">
            <stop stop-color="#808080" stop-opacity="0.25" offset="0%"></stop>
            <stop stop-color="#808080" stop-opacity="0.12" offset="53.514%"></stop>
            <stop stop-color="#808080" stop-opacity="0.1" offset="100%"></stop>
        </linearGradient>
        <linearGradient x1="50%" y1="100%" x2="50%" y2="2.34058383e-13%" id="linearGradient-11">
            <stop stop-color="#808080" stop-opacity="0.25" offset="0%"></stop>
            <stop stop-color="#808080" stop-opacity="0.12" offset="53.514%"></stop>
            <stop stop-color="#808080" stop-opacity="0.1" offset="100%"></stop>
        </linearGradient>
        <linearGradient x1="50%" y1="100.000054%" x2="50%" y2="0%" id="linearGradient-12">
            <stop stop-color="#808080" stop-opacity="0.25" offset="0%"></stop>
            <stop stop-color="#808080" stop-opacity="0.12" offset="53.514%"></stop>
            <stop stop-color="#808080" stop-opacity="0.1" offset="100%"></stop>
        </linearGradient>
    </defs>
    <g id="0.4_Onboarding_Step4" stroke="none" stroke-width="1" fill="none" fill-rule="evenodd">
        <g id="Group-16" transform="translate(0.000000, 38.000000)">
            <g id="Group-15" transform="translate(565.000000, 173.000000)">
                <path d="M172.972813,86.4864 C172.975158,91.2077811 172.592943,95.9215101 171.829946,100.580832 C171.76817,100.965744 171.701642,101.350656 171.632738,101.735568 C166.681154,129.57516 148.407338,152.810064 123.637538,164.60928 C123.518738,164.666304 123.397562,164.723328 123.276386,164.780352 C122.309354,165.236554 121.331234,165.675322 120.342026,166.096656 C120.075914,166.208328 119.812178,166.32 119.54369,166.429296 C114.187826,168.647303 108.620912,170.31666 102.928322,171.411768 C102.676466,171.461664 102.42461,171.506808 102.172754,171.551952 C97.0189182,172.496155 91.7901671,172.9728 86.5505542,172.9728 L86.3105782,172.9728 C85.8448822,172.9728 85.3791862,172.968048 84.9158662,172.956168 C84.8279542,172.956168 84.7400422,172.956168 84.6521302,172.951416 C79.427909,172.845863 74.2239073,172.268524 69.1035862,171.22644 C68.8541062,171.174168 68.6046262,171.121896 68.3551462,171.067248 C63.7507524,170.087179 59.2352379,168.728234 54.8547142,167.004288 C54.5862262,166.90212 54.3224902,166.7952 54.0563782,166.685904 C53.0679622,166.289112 52.0898422,165.87252 51.1220182,165.436128 C51.0008422,165.38148 50.8796662,165.326832 50.7608662,165.272184 C25.2687622,153.693936 6.38669021,130.107384 1.34006621,101.735568 C1.27116221,101.350656 1.20463421,100.965744 1.14285821,100.580832 C-0.377757331,91.2670498 -0.380966826,81.7685517 1.13335421,72.453744 C1.21889021,71.919144 1.31155421,71.382168 1.41134621,70.849944 C2.09129582,67.1141075 3.02000264,63.4278558 4.19126621,59.8158 C4.31006621,59.44752 4.43124221,59.07924 4.55479421,58.71096 C16.1259142,24.572592 48.4371382,-2.50111043e-14 86.4864022,-2.50111043e-14 C128.912258,-2.50111043e-14 164.202986,30.550608 171.561458,70.849944 C171.66125,71.382168 171.753914,71.919144 171.83945,72.453744 C172.595739,77.0929936 172.974764,81.78591 172.972813,86.4864 Z" id="Path" fill="#5E4EA5" fill-rule="nonzero" opacity="0.1"></path>
                <path d="M73.8684285,34.0218204 L73.4071281,34.0218204 C73.3131763,34.0218204 73.0808296,33.6530652 73.0808296,33.5472525 L73.0808296,33.1186625 C73.0808296,32.7842096 72.7024896,31.8666673 72.3680296,31.8666673 C72.0335696,31.8666673 71.6552296,32.7842096 71.6552296,33.1186625 L71.6552296,33.5472525 C71.6552296,33.6980524 71.5388056,34.0218204 71.3964642,34.0218204 L70.9351638,34.0218204 C70.6006991,34.0218204 69.6831686,34.2813604 69.6831686,34.6158204 C69.6831686,34.9502805 70.6006991,35.2098204 70.9351638,35.2098204 L71.4853219,35.2098204 C71.6595373,35.2098204 71.6552296,35.3890231 71.6552296,35.4802591 L71.6552296,36.0519247 C71.6552296,36.3863919 72.0335696,37.3039199 72.3680296,37.3039199 C72.7024896,37.3039199 73.0808296,36.3863919 73.0808296,36.0519247 L73.0808296,35.4802591 C73.0808296,35.404517 73.2337894,35.2098204 73.3182728,35.2098204 L73.8684285,35.2098204 C74.2028814,35.2098204 75.1204237,34.9502947 75.1204237,34.6158204 C75.1204237,34.2813462 74.2028814,34.0218204 73.8684285,34.0218204 Z" id="Path" fill="#2196F3" fill-rule="nonzero"></path>
                <path d="M9.23685665,58.5513284 L8.62746729,58.5513284 C8.50335456,58.5513284 8.19641813,58.0641867 8.19641813,57.9244113 L8.19641813,57.3582343 C8.19641813,56.9164123 7.6966194,55.7043126 7.25478081,55.7043126 C6.81294223,55.7043126 6.31317201,56.9164123 6.31317201,57.3582343 L6.31317201,57.9244113 C6.31317201,58.1236223 6.15937591,58.5513284 5.97133689,58.5513284 L5.36194754,58.5513284 C4.92010658,58.5513284 3.70801394,58.8941852 3.70801394,59.3360286 C3.70801394,59.7778719 4.9200947,60.1207097 5.36194754,60.1207097 L6.08871842,60.1207097 C6.31886253,60.1207097 6.31317201,60.3574425 6.31317201,60.4779698 L6.31317201,61.2331553 C6.31317201,61.6749962 6.81297074,62.8870889 7.25478081,62.8870889 C7.69659089,62.8870889 8.19641813,61.6750057 8.19641813,61.2331553 L8.19641813,60.4779698 C8.19641813,60.3779093 8.39848267,60.1207097 8.51008577,60.1207097 L9.23685665,60.1207097 C9.67868097,60.1207097 10.8907902,59.7778672 10.8907902,59.3360286 C10.8907902,58.89419 9.67868097,58.5513284 9.23685665,58.5513284 Z" id="Path" fill="url(#linearGradient-7)" fill-rule="nonzero"></path>
                <path d="M74.3392566,33.8409284 L73.7298673,33.8409284 C73.6057546,33.8409284 73.2988181,33.3537867 73.2988181,33.2140113 L73.2988181,32.6478343 C73.2988181,32.2060123 72.7990194,30.9939126 72.3571808,30.9939126 C71.9153422,30.9939126 71.4155601,32.2060123 71.4155601,32.6478343 L71.4155601,33.2140113 C71.4155601,33.4132223 71.261764,33.8409284 71.073725,33.8409284 L70.4643357,33.8409284 C70.0224947,33.8409284 68.8104021,34.1837852 68.8104021,34.6256286 C68.8104021,35.0674719 70.0224828,35.4103097 70.4643357,35.4103097 L71.1911065,35.4103097 C71.4212507,35.4103097 71.4155601,35.6470425 71.4155601,35.7675698 L71.4155601,36.5227553 C71.4155601,36.9645962 71.9153589,38.1766889 72.3571808,38.1766889 C72.7990028,38.1766889 73.2988181,36.9646057 73.2988181,36.5227553 L73.2988181,35.7675698 C73.2988181,35.6675093 73.5008827,35.4103097 73.6124858,35.4103097 L74.3392566,35.4103097 C74.781081,35.4103097 75.9931902,35.0674672 75.9931902,34.6256286 C75.9931902,34.18379 74.781081,33.8409284 74.3392566,33.8409284 Z" id="Path" fill="url(#linearGradient-8)" fill-rule="nonzero"></path>
                <path d="M140.154457,45.0081284 L139.545067,45.0081284 C139.420955,45.0081284 139.114018,44.5209867 139.114018,44.3812113 L139.114018,43.8150343 C139.114018,43.3732123 138.614219,42.1611126 138.172381,42.1611126 C137.730542,42.1611126 137.23076,43.3732123 137.23076,43.8150343 L137.23076,44.3812113 C137.23076,44.5804223 137.076964,45.0081284 136.888925,45.0081284 L136.279536,45.0081284 C135.837695,45.0081284 134.625602,45.3509852 134.625602,45.7928286 C134.625602,46.2346719 135.837683,46.5775097 136.279536,46.5775097 L137.006307,46.5775097 C137.236451,46.5775097 137.23076,46.8142425 137.23076,46.9347698 L137.23076,47.6899553 C137.23076,48.1317962 137.730559,49.3438889 138.172381,49.3438889 C138.614203,49.3438889 139.114018,48.1318057 139.114018,47.6899553 L139.114018,46.9347698 C139.114018,46.8347093 139.316083,46.5775097 139.427686,46.5775097 L140.154457,46.5775097 C140.596281,46.5775097 141.80839,46.2346672 141.80839,45.7928286 C141.80839,45.35099 140.596281,45.0081284 140.154457,45.0081284 Z" id="Path" fill="url(#linearGradient-8)" fill-rule="nonzero"></path>
                <path d="M114.00172,41.1498204 L113.70773,41.1498204 C113.647855,41.1498204 113.47283,40.91721 113.47283,40.8497744 L113.47283,40.5766318 C113.47283,40.3634832 113.210783,39.7787283 112.99763,39.7787283 C112.784476,39.7787283 112.52243,40.3634832 112.52243,40.5766318 L112.52243,40.8497744 C112.52243,40.9458812 112.517038,41.1498204 112.426323,41.1498204 L112.132333,41.1498204 C111.919177,41.1498204 111.33443,41.2930671 111.33443,41.5062204 C111.33443,41.7193738 111.919177,41.8626204 112.132333,41.8626204 L112.482952,41.8626204 C112.59398,41.8626204 112.52243,42.0235469 112.52243,42.0816876 L112.52243,42.446014 C112.52243,42.6591721 112.784476,43.2439176 112.99763,43.2439176 C113.210783,43.2439176 113.47283,42.659184 113.47283,42.446014 L113.47283,42.0816924 C113.47283,42.0334192 113.597261,41.8626252 113.651101,41.8626252 L114.00172,41.8626252 C114.214869,41.8626252 114.799624,41.7193857 114.799624,41.5062252 C114.799624,41.2930647 114.214869,41.1498204 114.00172,41.1498204 Z" id="Path" fill="#1976D2" fill-rule="nonzero"></path>
                <path d="M31.4306473,54.4652452 L30.9514248,54.4652452 C30.8538211,54.4652452 30.5685157,54.0860665 30.5685157,53.976148 L30.5685157,53.5309046 C30.5685157,53.183455 30.1413608,52.2302584 29.793897,52.2302584 C29.4464331,52.2302584 29.0192901,53.183455 29.0192901,53.5309046 L29.0192901,53.976148 C29.0192901,54.1328048 29.0104989,54.4652452 28.8626309,54.4652452 L28.383406,54.4652452 C28.0359421,54.4652452 27.0827598,54.6987466 27.0827598,55.0462105 C27.0827598,55.3936743 28.0359421,55.6271639 28.383406,55.6271639 L28.9549385,55.6271639 C29.1359256,55.6271639 29.0192901,55.8894743 29.0192901,55.9842767 L29.0192901,56.5781555 C29.0192901,56.9256193 29.4464474,57.8788016 29.793897,57.8788016 C30.1413466,57.8788016 30.5685157,56.9256193 30.5685157,56.5781555 L30.5685157,55.9842624 C30.5685157,55.9055764 30.7713501,55.6271496 30.8591148,55.6271496 L31.4306473,55.6271496 C31.778097,55.6271496 32.7312935,55.3936601 32.7312935,55.0461962 C32.7312935,54.6987324 31.778097,54.4652452 31.4306473,54.4652452 Z" id="Path" fill="url(#linearGradient-9)" fill-rule="nonzero"></path>
                <path d="M114.590647,40.9220452 L114.111425,40.9220452 C114.013821,40.9220452 113.728516,40.5428665 113.728516,40.432948 L113.728516,39.9877046 C113.728516,39.640255 113.301361,38.6870584 112.953897,38.6870584 C112.606433,38.6870584 112.17929,39.640255 112.17929,39.9877046 L112.17929,40.432948 C112.17929,40.5896048 112.170499,40.9220452 112.022631,40.9220452 L111.543406,40.9220452 C111.195942,40.9220452 110.24276,41.1555466 110.24276,41.5030105 C110.24276,41.8504743 111.195942,42.0839639 111.543406,42.0839639 L112.114939,42.0839639 C112.295926,42.0839639 112.17929,42.3462743 112.17929,42.4410767 L112.17929,43.0349555 C112.17929,43.3824193 112.606447,44.3356016 112.953897,44.3356016 C113.301347,44.3356016 113.728516,43.3824193 113.728516,43.0349555 L113.728516,42.4410624 C113.728516,42.3623764 113.93135,42.0839496 114.019115,42.0839496 L114.590647,42.0839496 C114.938097,42.0839496 115.891294,41.8504601 115.891294,41.5029962 C115.891294,41.1555324 114.938097,40.9220452 114.590647,40.9220452 Z" id="Path" fill="url(#linearGradient-10)" fill-rule="nonzero"></path>
                <path d="M30.8417201,54.6930204 L30.5477305,54.6930204 C30.4878553,54.6930204 30.3128296,54.46041 30.3128296,54.3929744 L30.3128296,54.1198318 C30.3128296,53.9066832 30.050783,53.3219283 29.8376296,53.3219283 C29.6244763,53.3219283 29.3624296,53.9066832 29.3624296,54.1198318 L29.3624296,54.3929744 C29.3624296,54.4890812 29.3570385,54.6930204 29.2663228,54.6930204 L28.9723332,54.6930204 C28.7591775,54.6930204 28.1744296,54.8362671 28.1744296,55.0494204 C28.1744296,55.2625738 28.7591775,55.4058204 28.9723332,55.4058204 L29.3229524,55.4058204 C29.4339805,55.4058204 29.3624296,55.5667469 29.3624296,55.6248876 L29.3624296,55.989214 C29.3624296,56.2023721 29.6244763,56.7871176 29.8376296,56.7871176 C30.050783,56.7871176 30.3128296,56.202384 30.3128296,55.989214 L30.3128296,55.6248924 C30.3128296,55.5766192 30.4372608,55.4058252 30.4911009,55.4058252 L30.8417201,55.4058252 C31.0548687,55.4058252 31.6396237,55.2625857 31.6396237,55.0494252 C31.6396237,54.8362647 31.0548687,54.6930204 30.8417201,54.6930204 Z" id="Path" fill="#1976D2" fill-rule="nonzero"></path>
                <circle id="Oval" fill="#64B5F6" fill-rule="nonzero" cx="98.3852296" cy="35.5662204" r="1.782"></circle>
                <circle id="Oval" fill="#0071BC" fill-rule="nonzero" cx="94.8212296" cy="52.5150197" r="1"></circle>
                <circle id="Oval" fill="#64B5F6" fill-rule="nonzero" cx="27.6893288" cy="39.0015197" r="1.65329921"></circle>
                <circle id="Oval" fill="#64B5F6" fill-rule="nonzero" cx="13.0818804" cy="45.2585731" r="1"></circle>
                <circle id="Oval" fill="#82A9FF" fill-rule="nonzero" cx="81.2730804" cy="62.1281731" r="1"></circle>
                <circle id="Oval" fill="#82A9FF" fill-rule="nonzero" cx="19.8090278" cy="76.8888212" r="1.5444"></circle>
                <circle id="Oval" fill="url(#linearGradient-11)" fill-rule="nonzero" cx="50.4395288" cy="35.3781197" r="1.4425884"></circle>
                <circle id="Oval" fill="url(#linearGradient-11)" fill-rule="nonzero" cx="50.6771288" cy="53.4357197" r="1.4425884"></circle>
                <circle id="Oval" fill="url(#linearGradient-11)" fill-rule="nonzero" cx="126.471529" cy="31.5765197" r="1.4425884"></circle>
                <circle id="Oval" fill="url(#linearGradient-11)" fill-rule="nonzero" cx="159.497929" cy="57.2373197" r="1.4425884"></circle>
                <circle id="Oval" fill="#0D47A1" fill-rule="nonzero" cx="50.4395288" cy="35.3781197" r="1"></circle>
                <circle id="Oval" fill="#64B5F6" fill-rule="nonzero" cx="72.4868296" cy="48.3966204" r="1.782"></circle>
                <path d="M125.184314,123.452208 C125.12729,125.543088 124.447754,127.541304 123.637538,129.482496 C123.518738,129.767616 123.397562,130.05036 123.276386,130.330728 C123.150458,130.615848 123.02453,130.900968 122.898602,131.186088 C122.238074,132.678216 121.56329,134.191728 120.522602,135.448632 C120.463202,135.519912 120.403802,135.591192 120.342026,135.660084 C120.095573,135.937061 119.828714,136.195184 119.54369,136.432284 C118.659486,137.21193 117.546741,137.684534 116.37173,137.779476 C114.105026,137.898276 112.14006,136.318236 110.424602,134.828484 C108.378866,133.055996 106.33313,131.281128 104.287394,129.50388 C103.584098,128.895624 101.878142,127.415376 101.728442,127.284696 L101.728442,156.333672 L101.203346,156.333672 L101.516978,161.254368 L102.172754,171.551952 C97.0189182,172.496155 91.7901671,172.971713 86.5505542,172.9728 L86.1181222,161.271 L85.9945702,157.937472 L85.9351702,156.333672 L85.4457142,156.333672 L85.4029462,157.205664 L85.2104902,161.271 L84.6521302,172.951416 C79.427909,172.845863 74.2239073,172.268524 69.1035862,171.22644 L69.7237222,161.268624 L70.0326022,156.333672 L69.7260982,156.333672 L69.7260982,126.814248 C68.818036,128.01235 67.8067451,129.128587 66.7038262,130.150152 C64.5511702,132.169752 62.0991382,133.925616 59.6874982,135.636336 C58.2238822,136.674648 56.5583062,137.746224 54.8547142,138.157272 C54.591919,138.22124 54.3252454,138.268067 54.0563782,138.297456 C53.3072747,138.391569 52.5465434,138.309394 51.8348182,138.05748 C51.5879811,137.969498 51.3494443,137.859771 51.1220182,137.729592 C50.9960902,137.660688 50.8772902,137.587032 50.7608662,137.508624 C48.9812422,136.294488 48.0450982,133.966008 47.3109142,131.848992 C46.4222902,129.282912 45.5194102,126.595656 45.8971942,123.906024 C46.1276662,122.278464 46.8072022,120.78396 47.6578102,119.365488 C48.2351782,118.403208 48.8909542,117.476568 49.5396022,116.568936 C49.8508582,116.134128 50.2262662,115.66368 50.7228502,115.530624 L50.7252262,115.530624 L50.7608662,115.523496 C50.8208481,115.508819 50.8821259,115.500065 50.9438182,115.49736 C51.0032595,115.495313 51.0627705,115.4969 51.1220182,115.502112 C51.6186022,115.561512 52.0391661,115.958304 52.3979445,116.326584 C52.951543,116.896824 53.504359,117.466272 54.0563925,118.034928 C54.3225045,118.308168 54.5886165,118.581408 54.8547285,118.854648 C54.8974965,118.899792 54.9402645,118.944936 54.9854085,118.99008 C55.3370565,119.351232 55.6863285,119.712384 56.0379765,120.073536 C56.7246405,118.887912 57.4160565,117.69516 58.1454885,116.528544 C59.6281125,114.152544 61.2675525,111.88584 63.3275587,110.001672 C64.3509262,109.06037 65.4846275,108.246594 66.7038547,107.578152 C67.7618148,106.994242 68.8900459,106.5479 70.0611427,106.249968 C71.4107107,105.912576 72.4157587,105.758136 73.1047987,106.000488 C73.6465267,106.190568 73.9934227,106.630128 74.1573667,107.421336 C74.1603152,107.428921 74.1619231,107.436961 74.1621187,107.445096 C74.2392284,107.864331 74.275829,108.290012 74.2714147,108.716256 C74.2714147,108.979992 74.2714147,109.243728 74.2690387,109.50984 L96.8457622,109.50984 C96.8243782,108.825552 96.8053702,108.074736 96.8410102,107.445096 C96.8481382,107.293044 96.8600182,107.148096 96.8742623,107.012664 C96.8810258,106.699922 96.9694907,106.39439 97.1308703,106.126416 C97.3614781,105.894741 97.6815762,105.77503 98.0076143,105.798528 C99.0483023,105.784272 100.55231,106.475688 101.28887,106.751304 C102.322611,107.139681 103.325053,107.606746 104.287382,108.148392 C108.930086,110.747736 112.655654,115.026912 114.366374,120.080664 C114.536559,119.454503 114.836031,118.870938 115.245494,118.367568 C115.52065,118.023905 115.83751,117.715826 116.188766,117.450432 C116.753954,117.020531 117.393462,116.698361 118.07531,116.500032 C118.551825,116.356595 119.046084,116.280617 119.543678,116.274312 C119.810791,116.269072 120.077865,116.286559 120.342014,116.326584 C120.769933,116.38782 121.186829,116.510248 121.57991,116.690112 C122.222045,116.989057 122.798623,117.412204 123.276374,117.935136 C123.404678,118.072944 123.523478,118.215504 123.637526,118.362816 C124.360402,119.332852 124.842501,120.460735 125.044118,121.653576 C125.154481,122.246455 125.201478,122.849389 125.184314,123.452208 Z" id="Path" fill="#FFFFFF" fill-rule="nonzero"></path>
                <path d="M99.6072896,89.4648681 L99.6072896,89.4648681 C97.816458,83.1320036 92.2441939,78.0111724 85.643654,78.0111724 C79.0431141,78.0111724 73.4708738,83.1320036 71.6800422,89.4648681 L71.6800422,89.4648681 C70.0429308,89.4648681 68.7157897,90.7920091 68.7157897,92.4291205 L68.7157897,96.0338808 L71.2516423,96.0338808 C72.3436923,102.922014 78.3707038,107.487577 85.6436564,107.487577 C92.916609,107.487577 98.9436443,102.922014 100.035694,96.0338808 L102.648151,96.0338808 L102.648151,92.5057251 C102.648151,91.6992389 102.327776,90.9257843 101.757503,90.3555128 C101.187231,89.7852413 100.413776,89.4648668 99.6072896,89.4648681 L99.6072896,89.4648681 Z" id="Path" fill="#FFFFFF" fill-rule="nonzero"></path>
                <circle id="Oval" fill="#5E4EA5" fill-rule="nonzero" cx="85.5594438" cy="93.8442234" r="11.7905674"></circle>
                <path d="M124.383606,69.293664 C124.384522,69.8530154 124.207258,70.3981215 123.877514,70.849944 C123.716444,71.0735721 123.520738,71.2700801 123.29777,71.432064 C123.29124,71.438336 123.284073,71.4439101 123.276386,71.448696 L123.276386,164.780352 C122.309354,165.236554 121.331234,165.675322 120.342026,166.096656 L120.342026,71.550864 C119.254483,70.8811075 118.799036,69.5311538 119.25856,68.3394482 C119.718085,67.1477427 120.961953,66.4530487 122.217607,66.6868352 C123.473262,66.9206217 124.383762,68.0164307 124.383606,69.293664 L124.383606,69.293664 Z" id="Path" fill="#E0E0E0" fill-rule="nonzero"></path>
                <path d="M172.972802,86.4864 C172.972802,91.2950747 172.58325,95.2986133 171.829946,98.7714391 C155.652539,74.9975324 139.475146,128.060816 123.29777,100.580832 L123.29777,72.453744 C139.478311,99.9391005 155.65889,46.8496686 171.839434,70.6583148 C172.556508,75.9045536 172.935081,81.1915163 172.972802,86.4864 L172.972802,86.4864 Z" id="Path" fill="#5E4EA5" fill-rule="nonzero"></path>
                <path d="M55.3204267,69.293664 C55.3231051,70.0527914 54.9963028,70.7757441 54.4246582,71.275248 C54.3108561,71.378518 54.1875477,71.4708004 54.0563782,71.550864 L54.0563782,166.685904 C53.0679622,166.289112 52.0898422,165.87252 51.1220182,165.436128 L51.1220182,71.448696 C51.1143316,71.4439101 51.1071649,71.438336 51.1006342,71.432064 C50.8776668,71.2700801 50.6819608,71.0735721 50.5208902,70.849944 C49.8470938,69.9199515 49.8484574,68.6619406 50.5242682,67.733411 C51.200079,66.8048814 52.3967519,66.4168513 53.4888454,66.7721248 C54.580939,67.1273983 55.3202632,68.1452357 55.3204267,69.293664 Z" id="Path" fill="#E0E0E0" fill-rule="nonzero"></path>
                <path d="M51.1006342,72.453744 C51.1006342,81.8294527 51.1006342,91.2051487 51.1006342,100.580832 C34.4480414,73.0828161 17.7954486,126.233917 1.14285821,102.343268 C0.418734398,97.0879911 0.0369775962,91.791202 2.20694473e-06,86.4864 C2.20694473e-06,81.6997983 0.387275951,77.6897471 1.13335421,74.2025489 C17.7891142,98.1270228 34.4448742,44.9504796 51.1006342,72.453744 Z" id="Path" fill="#5E4EA5" fill-rule="nonzero"></path>
                <path d="M87.047851,84.6583602 C90.7485194,84.655536 94.2350777,86.3931875 96.4608668,89.3496748 C94.7181106,85.1217638 90.6878455,82.2828409 86.1199993,82.0655569 C81.5521532,81.8482729 77.2706109,84.2918186 75.1344039,88.3352145 C72.9981968,92.3786104 73.3926246,97.2925647 76.146428,100.943455 C74.6477394,97.3058425 75.0617705,93.1604287 77.2503043,89.8910847 C79.4388382,86.6217408 83.1136053,84.6590986 87.047851,84.6583507 L87.047851,84.6583602 Z" id="Path" fill="#000000" fill-rule="nonzero" opacity="0.2"></path>
                <path d="M43.5744285,60.3954204 L43.1131281,60.3954204 C43.0191763,60.3954204 42.7868296,60.0266652 42.7868296,59.9208525 L42.7868296,59.4922625 C42.7868296,59.1578096 42.4084896,58.2402673 42.0740296,58.2402673 C41.7395696,58.2402673 41.3612296,59.1578096 41.3612296,59.4922625 L41.3612296,59.9208525 C41.3612296,60.0716524 41.2448056,60.3954204 41.1024642,60.3954204 L40.6411638,60.3954204 C40.3066991,60.3954204 39.3891686,60.6549604 39.3891686,60.9894204 C39.3891686,61.3238805 40.3066991,61.5834204 40.6411638,61.5834204 L41.1913219,61.5834204 C41.3655373,61.5834204 41.3612296,61.7626231 41.3612296,61.8538591 L41.3612296,62.4255247 C41.3612296,62.7599919 41.7395696,63.6775199 42.0740296,63.6775199 C42.4084896,63.6775199 42.7868296,62.7599919 42.7868296,62.4255247 L42.7868296,61.8538591 C42.7868296,61.778117 42.9397894,61.5834204 43.0242728,61.5834204 L43.5744285,61.5834204 C43.9088814,61.5834204 44.8264237,61.3238947 44.8264237,60.9894204 C44.8264237,60.6549462 43.9088814,60.3954204 43.5744285,60.3954204 Z" id="Path" fill="#2196F3" fill-rule="nonzero"></path>
                <circle id="Oval" fill="#0D47A1" fill-rule="nonzero" cx="63.3392296" cy="76.9878149" r="1"></circle>
                <circle id="Oval" fill="#64B5F6" fill-rule="nonzero" cx="153.498529" cy="60.8607197" r="1.65329921"></circle>
                <circle id="Oval" fill="#0071BC" fill-rule="nonzero" cx="90.4256296" cy="72.9486197" r="1"></circle>
                <circle id="Oval" fill="#0D47A1" fill-rule="nonzero" cx="50.6771288" cy="53.4357197" r="1"></circle>
                <path d="M139.683628,45.1890204 L139.222328,45.1890204 C139.128376,45.1890204 138.89603,44.8202652 138.89603,44.7144525 L138.89603,44.2858625 C138.89603,43.9514096 138.51769,43.0338673 138.18323,43.0338673 C137.84877,43.0338673 137.47043,43.9514096 137.47043,44.2858625 L137.47043,44.7144525 C137.47043,44.8652524 137.354006,45.1890204 137.211664,45.1890204 L136.750364,45.1890204 C136.415899,45.1890204 135.498369,45.4485604 135.498369,45.7830204 C135.498369,46.1174805 136.415899,46.3770204 136.750364,46.3770204 L137.300522,46.3770204 C137.474737,46.3770204 137.47043,46.5562231 137.47043,46.6474591 L137.47043,47.2191247 C137.47043,47.5535919 137.84877,48.4711199 138.18323,48.4711199 C138.51769,48.4711199 138.89603,47.5535919 138.89603,47.2191247 L138.89603,46.6474591 C138.89603,46.571717 139.048989,46.3770204 139.133473,46.3770204 L139.683628,46.3770204 C140.018081,46.3770204 140.935624,46.1174947 140.935624,45.7830204 C140.935624,45.4485462 140.018081,45.1890204 139.683628,45.1890204 Z" id="Path" fill="#2196F3" fill-rule="nonzero"></path>
                <circle id="Oval" fill="#0D47A1" fill-rule="nonzero" cx="159.44843" cy="57.0294149" r="1"></circle>
                <circle id="Oval" fill="#0D47A1" fill-rule="nonzero" cx="126.42203" cy="31.6062149" r="1"></circle>
                <circle id="Oval" fill="url(#linearGradient-12)" fill-rule="nonzero" cx="150.766129" cy="55.1583197" r="2.20944953"></circle>
                <circle id="Oval" fill="url(#linearGradient-12)" fill-rule="nonzero" cx="118.690129" cy="59.1975197" r="2.20944953"></circle>
                <circle id="Oval" fill="url(#linearGradient-12)" fill-rule="nonzero" cx="98.4941288" cy="35.6751197" r="2.20944953"></circle>
                <circle id="Oval" fill="url(#linearGradient-12)" fill-rule="nonzero" cx="72.5957288" cy="48.5055197" r="2.20944953"></circle>
                <circle id="Oval" fill="url(#linearGradient-12)" fill-rule="nonzero" cx="27.6893288" cy="39.0015197" r="2.20944953"></circle>
                <circle id="Oval" fill="url(#linearGradient-12)" fill-rule="nonzero" cx="19.8485288" cy="76.7799197" r="2.20944953"></circle>
                <circle id="Oval" fill="url(#linearGradient-11)" fill-rule="nonzero" cx="143.99948" cy="31.7153731" r="1.19413721"></circle>
                <circle id="Oval" fill="url(#linearGradient-11)" fill-rule="nonzero" cx="81.2730804" cy="62.1281731" r="1.19413721"></circle>
                <circle id="Oval" fill="url(#linearGradient-11)" fill-rule="nonzero" cx="13.0818804" cy="45.2585731" r="1.19413721"></circle>
                <circle id="Oval" fill="url(#linearGradient-11)" fill-rule="nonzero" cx="28.5258804" cy="75.4337731" r="1.19413721"></circle>
                <circle id="Oval" fill="url(#linearGradient-11)" fill-rule="nonzero" cx="55.6122804" cy="71.3945731" r="1.19413721"></circle>
                <circle id="Oval" fill="url(#linearGradient-11)" fill-rule="nonzero" cx="94.8162804" cy="52.6241731" r="1.19413721"></circle>
                <circle id="Oval" fill="#82A9FF" fill-rule="nonzero" cx="143.99948" cy="31.7153731" r="1"></circle>
                <circle id="Oval" fill="#64B5F6" fill-rule="nonzero" cx="150.726628" cy="55.2672212" r="1.5444"></circle>
                <ellipse id="Oval" fill="#000000" fill-rule="nonzero" opacity="0.2" cx="85.0608022" cy="98.604" rx="6.8904" ry="1.188"></ellipse>
                <text id="btc" transform="translate(149.543889, 86.357009) rotate(14.000000) translate(-149.543889, -86.357009) " font-family="FontAwesome5Brands-Regular, Font Awesome 5 Brands" font-size="12.32" font-weight="normal" letter-spacing="0.880000013" fill="#FFFFFF">
                    <tspan x="144.923889" y="90.8570093">btc</tspan>
                </text>
                <text id="bolt" font-family="FontAwesome5Pro-Solid, Font Awesome 5 Pro" font-size="12.32" font-weight="700" letter-spacing="0.880000013" fill="#FFFFFF">
                    <tspan x="15.2600022" y="95.48">bolt</tspan>
                </text>
            </g>
        </g>
    </g>
</svg>