<?xml version="1.0" encoding="UTF-8"?>
<svg width="245px" height="155px" viewBox="520 190 245 155" version="1.1" xmlns="http://www.w3.org/2000/svg" xmlns:xlink="http://www.w3.org/1999/xlink">
    <!-- Generator: Sketch 64 (93537) - https://sketch.com -->
    <title>0.1_Onboarding_Step1</title>
    <desc>Created with Sketch.</desc>
    <defs>
        <rect id="path-1" x="0" y="0" width="218" height="680"></rect>
        <filter x="-6.7%" y="-1.8%" width="113.3%" height="104.3%" filterUnits="objectBoundingBox" id="filter-2">
            <feOffset dx="0" dy="2" in="SourceAlpha" result="shadowOffsetOuter1"></feOffset>
            <feGaussianBlur stdDeviation="4.5" in="shadowOffsetOuter1" result="shadowBlurOuter1"></feGaussianBlur>
            <feColorMatrix values="0 0 0 0 0.508718297   0 0 0 0 0.508320861   0 0 0 0 0.508320861  0 0 0 0.5 0" type="matrix" in="shadowBlurOuter1"></feColorMatrix>
        </filter>
        <rect id="path-3" x="0" y="0" width="1284" height="53"></rect>
        <filter x="-0.8%" y="-15.1%" width="101.6%" height="137.7%" filterUnits="objectBoundingBox" id="filter-4">
            <feOffset dx="0" dy="2" in="SourceAlpha" result="shadowOffsetOuter1"></feOffset>
            <feGaussianBlur stdDeviation="3" in="shadowOffsetOuter1" result="shadowBlurOuter1"></feGaussianBlur>
            <feColorMatrix values="0 0 0 0 0   0 0 0 0 0   0 0 0 0 0  0 0 0 0.5 0" type="matrix" in="shadowBlurOuter1"></feColorMatrix>
        </filter>
        <rect id="path-5" x="-2.84217094e-14" y="0" width="455" height="521" rx="4"></rect>
        <filter x="-6.2%" y="-5.0%" width="112.3%" height="110.7%" filterUnits="objectBoundingBox" id="filter-6">
            <feOffset dx="0" dy="2" in="SourceAlpha" result="shadowOffsetOuter1"></feOffset>
            <feGaussianBlur stdDeviation="9" in="shadowOffsetOuter1" result="shadowBlurOuter1"></feGaussianBlur>
            <feColorMatrix values="0 0 0 0 0   0 0 0 0 0   0 0 0 0 0  0 0 0 0.191105769 0" type="matrix" in="shadowBlurOuter1"></feColorMatrix>
        </filter>
        <polygon id="path-7" points="1.6e-05 0.04208 70.7486176 0.04208 70.7486176 64.134208 1.6e-05 64.134208"></polygon>
    </defs>
    <g id="0.1_Onboarding_Step1" stroke="none" stroke-width="1" fill="none" fill-rule="evenodd">
        <g id="Group-17" transform="translate(415.000000, 144.000000)">
            <g id="Group-25" transform="translate(104.800000, 57.000000)">
                <polygon id="Rectangle" fill="#F2F2F2" fill-rule="nonzero" transform="translate(157.142577, 55.326261) rotate(30.649317) translate(-157.142577, -55.326261) " points="58.5506495 50.3672336 255.738825 50.2821148 255.734505 60.285288 58.5463295 60.3704068"></polygon>
                <polygon id="Rectangle" fill="#F2F2F2" fill-rule="nonzero" transform="translate(120.261948, 63.747815) rotate(30.649317) translate(-120.261948, -63.747815) " points="21.6700206 58.7887875 218.858196 58.7036687 218.853876 68.7068419 21.6657005 68.7919607"></polygon>
                <polygon id="Rectangle" fill="#F2F2F2" fill-rule="nonzero" transform="translate(87.596248, 72.958891) rotate(30.649317) translate(-87.596248, -72.958891) " points="-10.99568 67.9998642 186.192496 67.9147454 186.188175 77.9179186 -11 78.0030374"></polygon>
                <circle id="Oval" fill="currentColor" fill-rule="nonzero" cx="133.983195" cy="65.2" r="53.2"></circle>
                <path d="M134.383195,75.2 C129.081262,75.2 124.783195,70.9019336 124.783195,65.6 C124.783195,60.2980664 129.081262,56 134.383195,56 C139.685129,56 143.983195,60.2980664 143.983195,65.6 C143.977194,70.8994458 139.682641,75.1939987 134.383195,75.2 Z M134.383195,56.4682928 C130.689761,56.4682928 127.360007,58.6931638 125.946591,62.1054519 C124.533175,65.51774 125.314445,69.4454535 127.926098,72.0571058 C130.53775,74.668758 134.465463,75.4500288 137.877752,74.0366128 C141.29004,72.6231968 143.514911,69.293442 143.514911,65.600008 C143.509251,60.5590473 139.424156,56.4739528 134.383195,56.4682928 Z" id="Shape" fill="#8D74FF" fill-rule="nonzero" opacity="0.3"></path>
                <path d="M133.983459,84 C126.703244,84 120.139887,79.6145046 117.35387,72.8884636 C114.567853,66.1624225 116.107834,58.4204146 121.255723,53.2725261 C126.403613,48.1246376 134.145621,46.5846572 140.871661,49.3706753 C147.597702,52.1566934 151.983195,58.7200515 151.983195,66.0002657 C151.971988,75.9365996 143.919792,83.9887942 133.983459,84 L133.983459,84 Z M133.983459,48.4620606 C124.297375,48.4620606 116.445253,56.3141825 116.445253,66.0002657 C116.445253,75.6863489 124.297375,83.5384708 133.983459,83.5384708 C143.669542,83.5384708 151.521664,75.6863489 151.521664,66.0002657 C151.510749,56.3187069 143.665017,48.4729748 133.983459,48.4620606 L133.983459,48.4620606 Z" id="Shape" fill="#8D74FF" fill-rule="nonzero" opacity="0.3"></path>
                <path d="M134.38357,91.2 C124.029487,91.2 114.694935,85.0603068 110.732599,75.6438498 C106.770264,66.2273929 108.960459,55.388582 116.281901,48.1815378 C123.603342,40.9744937 134.614198,38.8185201 144.180122,42.7189443 C153.746047,46.6193685 159.983195,55.8080687 159.983195,66.0003683 C159.967232,79.9112263 148.515235,91.1842856 134.38357,91.2 L134.38357,91.2 Z M134.38357,41.2589066 C120.502346,41.2589066 109.249392,52.3360392 109.249392,66.0003683 C109.249392,79.6646974 120.502346,90.7418247 134.38357,90.7418247 C148.264793,90.7418247 159.517748,79.6646974 159.517748,66.0003683 C159.502041,52.3424476 148.258283,41.2743705 134.38357,41.2589066 L134.38357,41.2589066 Z" id="Shape" fill="#8D74FF" fill-rule="nonzero" opacity="0.3"></path>
                <path d="M134.383195,100.8 C114.973872,100.8 99.1831955,85.0094386 99.1831955,65.6000013 C99.1831955,46.1906776 114.973872,30.4 134.383195,30.4 C153.792632,30.4 169.583195,46.1906776 169.583195,65.6000013 C169.583195,85.0094386 153.79264,100.8 134.383195,100.8 Z M134.383195,30.8631581 C115.229198,30.8631581 99.6463429,46.446003 99.6463429,65.6000119 C99.6463429,84.7538967 115.229187,100.336853 134.383195,100.336853 C153.53708,100.336853 169.120048,84.7538967 169.120048,65.6000119 C169.120048,46.446003 153.53708,30.8631581 134.383195,30.8631581 Z" id="Shape" fill="#8D74FF" fill-rule="nonzero" opacity="0.3"></path>
                <path d="M134.383197,108.8 C110.5626,108.8 91.1831955,89.4205977 91.1831955,65.6000013 C91.1831955,41.7794049 110.5626,22.4 134.383197,22.4 C158.203793,22.4 177.583195,41.7794049 177.583195,65.6000013 C177.583195,89.4205977 158.203793,108.8 134.383197,108.8 Z M134.383197,22.8620322 C110.817416,22.8620322 91.6452277,42.0342203 91.6452277,65.6000013 C91.6452277,89.165893 110.817416,108.337968 134.383197,108.337968 C157.949088,108.337968 177.121166,89.165893 177.121166,65.6000013 C177.121166,42.0342203 157.949088,22.8620322 134.383197,22.8620322 L134.383197,22.8620322 Z" id="Shape" fill="#8D74FF" fill-rule="nonzero" opacity="0.3"></path>
                <polygon id="Path" fill="#2F2E41" fill-rule="nonzero" points="134.046766 65.6 133.583195 65.6 133.583195 41.6 225.583195 41.6 225.583195 42.0661175 134.046766 42.0661175"></polygon>
                <path d="M231.00009,48 C228.573352,48 226.385565,46.5381698 225.456892,44.2961559 C224.528219,42.0541421 225.041546,39.4734722 226.757509,37.757509 C228.473472,36.0415458 231.054142,35.5282189 233.296156,36.456892 C235.53817,37.3855651 237,39.5733518 237,42.0000903 C236.99629,45.3122109 234.312211,47.9962898 231.00009,48 Z M231.00009,36.4617071 C228.760024,36.4617071 226.740529,37.8110885 225.883292,39.8806394 C225.026055,41.9501903 225.499895,44.3323469 227.08386,45.9163132 C228.667826,47.5002795 231.049982,47.9741203 233.119534,47.1168844 C235.189085,46.2596485 236.538468,44.2401538 236.538468,42.0000877 C236.53497,38.9427762 234.057402,36.465208 231.00009,36.4617071 L231.00009,36.4617071 Z" id="Shape" fill="#2F2E41" fill-rule="nonzero"></path>
                <path d="M217.4,108 C214.086289,108 211.4,105.313706 211.4,102 C211.4,98.6862901 214.086293,96 217.4,96 C220.713709,96 223.4,98.6862918 223.4,102 C223.39633,105.312188 220.712186,107.996332 217.4,108 Z M217.399997,96.4615334 C214.34119,96.4615334 211.861539,98.9411891 211.861539,101.999996 C211.861539,105.058804 214.341193,107.538456 217.400001,107.538456 C220.458808,107.538456 222.938461,105.058802 222.938461,101.999995 C222.934962,98.9426376 220.457354,96.4650341 217.399997,96.4615334 L217.399997,96.4615334 Z" id="Shape" fill="#2F2E41" fill-rule="nonzero"></path>
                <path d="M50.2,57.6 C46.8862915,57.6 44.2,54.9137085 44.2,51.6 C44.2,48.2862915 46.8862915,45.6 50.2,45.6 C53.5137085,45.6 56.2,48.2862915 56.2,51.6 C56.1962522,54.9121548 53.5121548,57.5962522 50.2,57.6 L50.2,57.6 Z M50.2,46.0615385 C47.9599012,46.0615385 45.940377,47.4109416 45.0831285,49.4805231 C44.22588,51.5501047 44.6997278,53.9322959 46.2837172,55.5162846 C47.8677067,57.1002733 50.2498981,57.5741199 52.3194793,56.7168705 C54.3890604,55.8596211 55.7384615,53.8400962 55.7384615,51.5999974 C55.734956,48.5426457 53.2573516,46.0650496 50.2,46.0615385 L50.2,46.0615385 Z" id="Shape" fill="#2F2E41" fill-rule="nonzero"></path>
                <polygon id="Path" fill="#2F2E41" fill-rule="nonzero" points="115.183195 76 114.718815 76 114.718815 52.5869708 55.9831955 51.6633809 55.9903439 51.2 115.183195 52.1307269"></polygon>
                <polygon id="Path" fill="#2F2E41" fill-rule="nonzero" points="211.183195 102.4 144.783195 102.4 144.783195 78.4 145.246009 78.4 145.246009 101.934148 211.183195 101.934148"></polygon>
                <rect id="Rectangle" fill="#2F2E41" fill-rule="nonzero" x="218.383195" y="52.8" width="25.6" height="1.6"></rect>
                <rect id="Rectangle" fill="#2F2E41" fill-rule="nonzero" x="218.383195" y="57.6" width="25.6" height="1.6"></rect>
                <rect id="Rectangle" fill="#2F2E41" fill-rule="nonzero" x="218.383195" y="62.4" width="25.6" height="1.6"></rect>
                <rect id="Rectangle" fill="#2F2E41" fill-rule="nonzero" x="203.983195" y="112.8" width="25.6" height="1.6"></rect>
                <rect id="Rectangle" fill="#2F2E41" fill-rule="nonzero" x="203.983195" y="117.6" width="25.6" height="1.6"></rect>
                <rect id="Rectangle" fill="#2F2E41" fill-rule="nonzero" x="203.983195" y="122.4" width="25.6" height="1.6"></rect>
                <rect id="Rectangle" fill="#2F2E41" fill-rule="nonzero" x="37.5831955" y="63.2" width="25.6" height="1.6"></rect>
                <rect id="Rectangle" fill="#2F2E41" fill-rule="nonzero" x="37.5831955" y="67.2" width="25.6" height="1.6"></rect>
                <rect id="Rectangle" fill="#2F2E41" fill-rule="nonzero" x="37.5831955" y="72" width="25.6" height="1.6"></rect>
                <ellipse id="Oval" fill="#F2F2F2" fill-rule="nonzero" cx="134.6" cy="152.4" rx="61.6" ry="2"></ellipse>
                <g id="Group-3" transform="translate(99.200000, 32.000000)">
                    <mask id="mask-8" fill="white">
                        <use xlink:href="#path-7"></use>
                    </mask>
                    <g id="Clip-2"></g>
                    <path d="M57.699216,8.457728 C58.011536,9.194208 58.136656,9.776128 58.119536,10.096288 C56.909936,9.367488 55.090576,8.747968 54.098096,8.570368 C53.452016,8.454528 55.566896,7.941408 57.699216,8.457728 M59.456816,35.551648 C59.830896,35.472448 60.206896,35.396768 60.583216,35.323008 C60.976656,35.245728 61.371056,35.171648 61.766896,35.101728 C61.449456,34.901728 61.130896,34.703648 60.810256,34.508608 C56.737456,32.030528 52.396016,29.926368 48.106416,27.889888 C45.399216,26.604608 42.642096,25.327008 39.834576,24.175488 C42.283536,20.945248 45.419216,18.203808 48.770736,15.855488 C48.773616,15.853568 48.787216,15.844128 48.808336,15.829248 C49.541936,16.830368 50.469296,17.511648 50.934256,17.767648 C51.843216,18.268448 52.988016,18.736448 54.040496,18.879488 C56.110256,19.160928 57.819216,19.117568 59.709936,18.791648 C59.880336,18.762368 60.052016,18.741568 60.222896,18.713088 C61.435376,18.510368 62.211216,18.479648 62.921456,18.466368 C63.862096,18.448768 64.328016,18.647968 64.438736,18.676768 C64.774736,18.763648 65.060336,18.907488 65.219056,19.100448 C65.403376,19.335328 65.600336,19.556928 65.811376,19.759808 C66.444336,20.389728 67.072816,20.738528 67.984656,20.838528 C69.158256,20.967168 69.988976,20.508128 70.576336,19.746048 C70.853776,19.386208 70.720176,18.821088 70.689776,18.710208 C70.535696,18.143328 70.180016,17.318688 69.922576,16.551008 C69.855856,16.352608 69.532496,15.742688 69.143376,15.328768 C69.014896,15.191808 68.885616,15.055168 68.756496,14.918688 C68.152176,14.279488 67.543056,13.645088 66.939216,13.006368 C64.529776,10.459488 61.917776,8.114528 59.224976,5.872448 C58.945936,5.640128 58.666416,5.407168 58.386416,5.174688 C58.183376,5.005888 57.979536,4.838048 57.776016,4.669888 C57.672496,4.584448 57.569136,4.499168 57.465296,4.413888 C57.246256,4.233728 57.026576,4.054848 56.806416,3.876128 C56.719536,3.805728 56.632336,3.735808 56.545296,3.665568 C56.408176,3.555168 56.095216,3.291648 55.831696,3.080608 C56.705136,2.209888 57.409936,1.667808 58.660976,0.848128 C58.840336,0.730688 59.806736,0.215168 59.772656,0.084288 C59.752176,0.005248 58.165456,0.023168 56.347376,0.257408 C55.708656,0.339648 52.128656,0.868288 49.670576,1.403968 C47.053936,1.974048 44.290896,2.771008 41.745936,3.572128 C34.394736,5.886368 27.375376,9.022688 20.947536,13.285088 C17.253456,15.734688 13.795536,18.437888 10.457936,21.350368 C8.902576,22.707328 7.356656,24.086048 5.847216,25.502848 C5.610736,25.724768 5.376176,25.948608 5.141616,26.172608 C5.463056,26.232768 5.784336,26.295648 6.104976,26.361568 C8.763056,26.907488 11.392016,27.637088 13.948016,28.367648 C17.074096,29.261088 20.236656,30.224288 23.294736,31.406688 C21.552176,33.064448 19.852176,34.763008 18.233776,36.560448 C15.186256,39.944608 12.345296,43.519808 9.694256,47.221888 C6.239856,52.045568 3.290896,57.247808 0.720336,62.608928 C0.476816,63.116128 0.236176,63.624448 1.6e-05,64.134208 C0.475536,63.753568 0.953936,63.376288 1.435856,63.002368 C5.597456,59.775008 9.985296,56.790848 14.366256,53.907808 C20.530736,49.851008 27.146416,46.499488 34.011376,43.802688 C42.287856,40.551488 50.740016,37.397408 59.456816,35.551648" id="Fill-1" fill="#FFFFFE" mask="url(#mask-8)"></path>
                </g>
                <text id="bolt" font-family="FontAwesome5Pro-Solid, Font Awesome 5 Pro" font-size="8" font-weight="700" fill="currentColor">
                    <tspan x="228.5" y="45.4">bolt</tspan>
                </text>
                <text id="bolt" font-family="FontAwesome5Pro-Solid, Font Awesome 5 Pro" font-size="8" font-weight="700" fill="currentColor">
                    <tspan x="214.9" y="105.4">bolt</tspan>
                </text>
                <text id="bolt" font-family="FontAwesome5Pro-Solid, Font Awesome 5 Pro" font-size="8" font-weight="700" fill="currentColor">
                    <tspan x="47.7" y="55">bolt</tspan>
                </text>
            </g>
        </g>
    </g>
</svg>
