<?xml version="1.0" encoding="UTF-8"?>
<svg width="226px" height="105px" viewBox="530 230 226 105" version="1.1" xmlns="http://www.w3.org/2000/svg" xmlns:xlink="http://www.w3.org/1999/xlink">
    <!-- Generator: Sketch 64 (93537) - https://sketch.com -->
    <title>0.2_Onboarding_Step2</title>
    <desc>Created with Sketch.</desc>
    <defs>
        <rect id="path-1" x="0" y="0" width="218" height="680"></rect>
        <filter x="-6.7%" y="-1.8%" width="113.3%" height="104.3%" filterUnits="objectBoundingBox" id="filter-2">
            <feOffset dx="0" dy="2" in="SourceAlpha" result="shadowOffsetOuter1"></feOffset>
            <feGaussianBlur stdDeviation="4.5" in="shadowOffsetOuter1" result="shadowBlurOuter1"></feGaussianBlur>
            <feColorMatrix values="0 0 0 0 0.508718297   0 0 0 0 0.508320861   0 0 0 0 0.508320861  0 0 0 0.5 0" type="matrix" in="shadowBlurOuter1"></feColorMatrix>
        </filter>
        <rect id="path-3" x="0" y="0" width="1284" height="53"></rect>
        <filter x="-0.8%" y="-15.1%" width="101.6%" height="137.7%" filterUnits="objectBoundingBox" id="filter-4">
            <feOffset dx="0" dy="2" in="SourceAlpha" result="shadowOffsetOuter1"></feOffset>
            <feGaussianBlur stdDeviation="3" in="shadowOffsetOuter1" result="shadowBlurOuter1"></feGaussianBlur>
            <feColorMatrix values="0 0 0 0 0   0 0 0 0 0   0 0 0 0 0  0 0 0 0.5 0" type="matrix" in="shadowBlurOuter1"></feColorMatrix>
        </filter>
        <rect id="path-5" x="0" y="0" width="455" height="521" rx="4"></rect>
        <filter x="-6.2%" y="-5.0%" width="112.3%" height="110.7%" filterUnits="objectBoundingBox" id="filter-6">
            <feOffset dx="0" dy="2" in="SourceAlpha" result="shadowOffsetOuter1"></feOffset>
            <feGaussianBlur stdDeviation="9" in="shadowOffsetOuter1" result="shadowBlurOuter1"></feGaussianBlur>
            <feColorMatrix values="0 0 0 0 0   0 0 0 0 0   0 0 0 0 0  0 0 0 0.191105769 0" type="matrix" in="shadowBlurOuter1"></feColorMatrix>
        </filter>
    </defs>
    <g id="0.2_Onboarding_Step2" stroke="none" stroke-width="1" fill="none" fill-rule="evenodd">
        <g id="Group-21" transform="translate(415.000000, 144.000000)">
            <path d="M137.27845,181.485666 L136.974329,181.371666 C136.907498,181.346483 130.256124,178.798118 127.140329,173.019813 C124.024409,167.241232 125.550127,160.2838 125.5659,160.214342 L125.63771,159.897491 L125.941692,160.011491 C126.008522,160.036674 132.659758,162.58504 135.775692,168.363345 C138.891612,174.141926 137.365896,181.099358 137.350121,181.168816 L137.27845,181.485666 Z M127.63927,172.750828 C130.27356,177.636414 135.529682,180.140781 136.861423,180.712497 C137.114623,179.285147 137.908692,173.513205 135.276756,168.632322 C132.645096,163.75199 127.386898,161.24375 126.054602,160.670651 C125.801261,162.098834 125.007473,167.870219 127.63927,172.750828 Z" id="Shape" fill="#3F3D56" fill-rule="nonzero"></path>
            <path d="M129.52152,170.992866 C135.12101,174.361706 137.277552,181.053148 137.277552,181.053148 C137.277552,181.053148 130.355525,182.282625 124.756032,178.913788 C119.156539,175.544951 117,168.853506 117,168.853506 C117,168.853506 123.92203,167.624027 129.52152,170.992866 Z" id="Path" fill="#D0CDE1" fill-rule="nonzero"></path>
            <path d="M246.283421,83.2869568 L246.283421,82 L217.970381,82 L217.970381,83.2869568 L155.272279,83.2869568 C154.152099,83.2869568 153.077799,83.7319467 152.285712,84.5240339 C151.493626,85.316121 151.048637,86.3904216 151.048637,87.5106016 L151.048637,173.011125 C151.048637,175.343782 152.939622,177.234784 155.272279,177.234784 L308.724125,177.234784 C309.844308,177.234784 310.918611,176.789792 311.7107,175.997702 C312.502788,175.205612 312.947777,174.131308 312.947777,173.011125 L312.947777,87.5106016 C312.947777,86.3904197 312.502788,85.3161173 311.710699,84.5240298 C310.91861,83.7319422 309.844307,83.2869536 308.724125,83.2869568 L246.283421,83.2869568 Z" id="Path" fill="#3F3D56" fill-rule="nonzero"></path>
            <polygon id="Path" fill="#5E4EA5" fill-rule="nonzero" points="156.711247 90.7513048 307.285159 90.7513048 307.285159 175.690434 156.711247 175.690434"></polygon>
            <circle id="Oval" fill="#5E4EA5" fill-rule="nonzero" cx="231.869508" cy="86.8904344" r="1.5443472"></circle>
            <path d="M298.641089,101.561642 L291.503489,101.561642 L291.503489,94.4240536 L298.641089,94.4240536 L298.641089,101.561642 Z M291.81383,101.251322 L298.330759,101.251322 L298.330759,94.7343832 L291.81383,94.7343832 L291.81383,101.251322 Z" id="Shape" fill="#3F3D56" fill-rule="nonzero"></path>
            <path d="M317.175557,174.146085 L302.480522,174.146085 L302.480522,173.087315 C302.480524,173.031638 302.458406,172.978241 302.419036,172.938871 C302.379667,172.899502 302.326269,172.877387 302.270592,172.877387 L297.232294,172.877387 C297.176617,172.877387 297.12322,172.899503 297.083851,172.938872 C297.044481,172.978242 297.022364,173.031638 297.022366,173.087315 L297.022366,174.146085 L293.873429,174.146085 L293.873429,173.087315 C293.87343,173.031638 293.851313,172.978242 293.811944,172.938872 C293.772574,172.899503 293.719178,172.877387 293.663501,172.877387 L288.625202,172.877387 C288.569525,172.877387 288.516128,172.899502 288.476758,172.938871 C288.437388,172.978241 288.415271,173.031638 288.415272,173.087315 L288.415272,174.146085 L285.266338,174.146085 L285.266338,173.087315 C285.266339,173.031638 285.244222,172.978241 285.204852,172.938871 C285.165482,172.899502 285.112084,172.877387 285.056407,172.877387 L280.018097,172.877387 C279.96242,172.877387 279.909023,172.899503 279.869654,172.938872 C279.830284,172.978242 279.808168,173.031638 279.808169,173.087315 L279.808169,174.146085 L276.659244,174.146085 L276.659244,173.087315 C276.659245,173.031638 276.637128,172.978242 276.597759,172.938872 C276.55839,172.899503 276.504993,172.877387 276.449316,172.877387 L271.411018,172.877387 C271.355341,172.877387 271.301944,172.899503 271.262575,172.938872 C271.223205,172.978242 271.201088,173.031638 271.20109,173.087315 L271.20109,174.146085 L268.052153,174.146085 L268.052153,173.087315 C268.052154,173.031638 268.030037,172.978241 267.990667,172.938871 C267.951297,172.899502 267.8979,172.877387 267.842222,172.877387 L262.803926,172.877387 C262.748249,172.877387 262.694852,172.899502 262.655482,172.938871 C262.616112,172.978241 262.593995,173.031638 262.593996,173.087315 L262.593996,174.146085 L259.445057,174.146085 L259.445057,173.087315 C259.445059,173.031638 259.422942,172.978241 259.383572,172.938872 C259.344203,172.899502 259.290806,172.877387 259.235129,172.877387 L254.196833,172.877387 C254.141156,172.877387 254.087759,172.899503 254.04839,172.938872 C254.00902,172.978242 253.986904,173.031638 253.986905,173.087315 L253.986905,174.146085 L250.837968,174.146085 L250.837968,173.087315 C250.837969,173.031638 250.815852,172.978242 250.776483,172.938872 C250.737114,172.899503 250.683717,172.877387 250.62804,172.877387 L211.161377,172.877387 C211.1057,172.877387 211.052303,172.899503 211.012934,172.938872 C210.973564,172.978242 210.951448,173.031638 210.951449,173.087315 L210.951449,174.146085 L207.802507,174.146085 L207.802507,173.087315 C207.802508,173.031638 207.780392,172.978242 207.741022,172.938872 C207.701653,172.899503 207.648256,172.877387 207.592579,172.877387 L202.554281,172.877387 C202.498604,172.877387 202.445206,172.899502 202.405836,172.938871 C202.366466,172.978241 202.344349,173.031638 202.34435,173.087315 L202.34435,174.146085 L199.195416,174.146085 L199.195416,173.087315 C199.195417,173.031638 199.1733,172.978241 199.13393,172.938871 C199.09456,172.899502 199.041163,172.877387 198.985486,172.877387 L193.947187,172.877387 C193.89151,172.877387 193.838114,172.899503 193.798744,172.938872 C193.759375,172.978242 193.737258,173.031638 193.737259,173.087315 L193.737259,174.146085 L190.588322,174.146085 L190.588322,173.087315 C190.588324,173.031638 190.566207,172.978242 190.526837,172.938872 C190.487468,172.899503 190.434071,172.877387 190.378394,172.877387 L185.340096,172.877387 C185.284419,172.877387 185.231021,172.899502 185.191652,172.938871 C185.152282,172.978241 185.130164,173.031638 185.130166,173.087315 L185.130166,174.146085 L181.981231,174.146085 L181.981231,173.087315 C181.981232,173.031638 181.959115,172.978241 181.919745,172.938871 C181.880375,172.899502 181.826978,172.877387 181.771301,172.877387 L176.733002,172.877387 C176.677326,172.877387 176.623929,172.899503 176.584559,172.938872 C176.54519,172.978242 176.523073,173.031638 176.523074,173.087315 L176.523074,174.146085 L173.374138,174.146085 L173.374138,173.087315 C173.374139,173.031638 173.352022,172.978242 173.312653,172.938872 C173.273283,172.899503 173.219886,172.877387 173.16421,172.877387 L168.125911,172.877387 C168.070234,172.877387 168.016838,172.899503 167.977468,172.938872 C167.938099,172.978242 167.915982,173.031638 167.915983,173.087315 L167.915983,174.146085 L164.767046,174.146085 L164.767046,173.087315 C164.767048,173.031638 164.74493,172.978241 164.70556,172.938871 C164.666191,172.899502 164.612793,172.877387 164.557116,172.877387 L159.51882,172.877387 C159.463143,172.877387 159.409745,172.899502 159.370376,172.938871 C159.331006,172.978241 159.308888,173.031638 159.30889,173.087315 L159.30889,174.146085 L149.652154,174.146085 C146.869579,174.146085 144.613855,176.401806 144.613855,179.184381 L144.613855,181.462581 C144.613855,184.245151 146.869583,186.500867 149.652154,186.500867 L317.175557,186.500867 C319.958127,186.500867 322.213855,184.245151 322.213855,181.462581 L322.213855,179.184381 C322.213855,176.401807 319.958131,174.146086 317.175557,174.146085 L317.175557,174.146085 Z" id="Path" fill="#3F3D56" fill-rule="nonzero"></path>
            <polygon id="Path" fill="#3F3D56" fill-rule="nonzero" points="123.890719 181.332038 342.936994 181.332038 342.936994 182.000507 123.890719 182.000507"></polygon>
            <path d="M297.977186,138.080973 L249.497186,138.080973 L249.497186,110.480973 L297.977186,110.480973 L297.977186,138.080973 Z M249.977186,137.600973 L297.497186,137.600973 L297.497186,110.960973 L249.977186,110.960973 L249.977186,137.600973 Z" id="Shape" fill="#3F3D56" fill-rule="nonzero"></path>
            <path d="M209.177186,143.600973 L165.977186,143.600973 L165.977186,116.720973 L209.177186,116.720973 L209.177186,143.600973 Z M166.457186,143.120973 L208.697186,143.120973 L208.697186,117.200973 L166.457186,117.200973 L166.457186,143.120973 Z" id="Shape" fill="#3F3D56" fill-rule="nonzero"></path>
            <path d="M186.159804,133.280973 L186.118438,132.744254 C185.994686,131.629799 186.366173,130.411989 187.398118,129.173786 C188.326946,128.079722 188.842918,127.274879 188.842918,126.34605 C188.842918,125.293473 188.18245,124.591754 186.882137,124.571128 C186.138454,124.568104 185.411427,124.791251 184.797497,125.210968 L184.302137,123.910648 C184.983348,123.41518 186.159792,123.084945 187.253621,123.084945 C189.627254,123.084945 190.700458,124.55049 190.700458,126.118929 C190.700458,127.5226 189.916121,128.533929 188.925418,129.710258 C188.017332,130.783461 187.687097,131.691664 187.748971,132.744242 L187.769597,133.280973 L186.159804,133.280973 Z M185.705702,136.170573 C185.68325,135.830138 185.804351,135.495851 186.039636,135.248786 C186.274921,135.001721 186.602898,134.864445 186.944023,134.870253 C187.666483,134.870253 188.161836,135.406737 188.161836,136.170573 C188.180418,136.621391 187.950499,137.046149 187.562882,137.277093 C187.175266,137.508038 186.692273,137.508038 186.304656,137.277093 C185.917039,137.046149 185.68712,136.621391 185.705702,136.170573 L185.705702,136.170573 Z" id="Shape" fill="#D0CDE1" fill-rule="nonzero"></path>
            <path d="M272.319804,127.280973 L272.278438,126.744254 C272.154686,125.629799 272.526173,124.411989 273.558118,123.173786 C274.486946,122.079722 275.002918,121.274879 275.002918,120.34605 C275.002918,119.293473 274.34245,118.591754 273.042137,118.571128 C272.298454,118.568104 271.571427,118.791251 270.957497,119.210968 L270.462137,117.910648 C271.143348,117.41518 272.319792,117.084945 273.413621,117.084945 C275.787254,117.084945 276.860458,118.55049 276.860458,120.118929 C276.860458,121.5226 276.076121,122.533929 275.085418,123.710258 C274.177332,124.783461 273.847097,125.691664 273.908971,126.744242 L273.929597,127.280973 L272.319804,127.280973 Z M271.865702,130.170573 C271.84325,129.830138 271.964351,129.495851 272.199636,129.248786 C272.434921,129.001721 272.762898,128.864445 273.104023,128.870253 C273.826483,128.870253 274.321836,129.406737 274.321836,130.170573 C274.340418,130.621391 274.110499,131.046149 273.722882,131.277093 C273.335266,131.508038 272.852273,131.508038 272.464656,131.277093 C272.077039,131.046149 271.84712,130.621391 271.865702,130.170573 L271.865702,130.170573 Z" id="Shape" fill="#D0CDE1" fill-rule="nonzero"></path>
            <circle id="Oval" fill="#2F2E41" fill-rule="nonzero" cx="232.846351" cy="144.603693" r="20.71014"></circle>
            <polygon id="Path" fill="#2F2E41" fill-rule="nonzero" points="224.847602 172.96432 218.656322 171.84352 220.664402 158.91616 226.855442 160.03696"></polygon>
            <polygon id="Path" fill="#2F2E41" fill-rule="nonzero" transform="translate(235.138105, 167.264187) rotate(10.261060) translate(-235.138105, -167.264187) " points="231.99226 161.627883 238.283949 161.627883 238.283949 172.900491 231.99226 172.900491"></polygon>
            <ellipse id="Oval" fill="#2F2E41" fill-rule="nonzero" transform="translate(236.228255, 172.937474) rotate(-78.586970) translate(-236.228255, -172.937474) " cx="236.228255" cy="172.937474" rx="1.966152" ry="5.24307361"></ellipse>
            <ellipse id="Oval" fill="#2F2E41" fill-rule="nonzero" transform="translate(223.275086, 172.952117) rotate(-82.453700) translate(-223.275086, -172.952117) " cx="223.275086" cy="172.952117" rx="1.966152" ry="5.24307359"></ellipse>
            <circle id="Oval" fill="#FFFFFF" fill-rule="nonzero" cx="234.296242" cy="139.537874" r="7.0781496"></circle>
            <circle id="Oval" fill="#3F3D56" fill-rule="nonzero" cx="237.205337" cy="137.000735" r="2.3593824"></circle>
            <ellipse id="Oval" fill="#2F2E41" fill-rule="nonzero" transform="translate(251.969297, 140.830652) rotate(-12.910100) translate(-251.969297, -140.830652) " cx="251.969297" cy="140.830652" rx="10.3550711" ry="3.25077598"></ellipse>
            <ellipse id="Oval" fill="#2F2E41" fill-rule="nonzero" transform="translate(211.316074, 147.591222) rotate(-12.910100) translate(-211.316074, -147.591222) " cx="211.316074" cy="147.591222" rx="10.3550711" ry="3.25077598"></ellipse>
            <path d="M227.158301,152.765298 C226.857995,154.424189 227.465508,156.117278 228.751997,157.206796 C230.038485,158.296314 231.808501,158.616737 233.395295,158.047364 C234.982089,157.477991 236.144591,156.105324 236.444897,154.446434 C236.909129,151.882012 234.926402,150.974565 232.361981,150.51033 C229.797559,150.046096 227.622535,150.200877 227.158301,152.765298 Z" id="Path" fill="#FFFFFF" fill-rule="nonzero"></path>
            <circle id="Oval" fill="#3F3D56" fill-rule="nonzero" cx="171.114792" cy="87.032608" r="1.506612"></circle>
            <polygon id="Path" fill="#D0CDE1" fill-rule="nonzero" points="170.285321 147.870122 204.338196 147.870122 204.338196 180.262274 170.285321 180.262274"></polygon>
            <polygon id="Path" fill="#FFFFFF" fill-rule="nonzero" points="174.154966 151.739766 200.468551 151.739766 200.468551 171.861921 174.154966 171.861921"></polygon>
            <polygon id="Path" fill="#5E4EA5" fill-rule="nonzero" points="181 156 193 156 193 168 181 168"></polygon>
            <text id="bolt" font-family="FontAwesome5Pro-Solid, Font Awesome 5 Pro" font-size="8" font-weight="700" fill="#FFFFFF">
                <tspan x="185" y="165">bolt</tspan>
            </text>
            <polygon id="Path" fill="#F2F2F2" fill-rule="nonzero" points="174.128906 173.859174 188.441717 173.859174 188.441717 174.612479 174.128906 174.612479"></polygon>
            <circle id="Oval" fill="#3F3D56" fill-rule="nonzero" cx="187.311758" cy="149.753387" r="1.506612"></circle>
            <polygon id="Path" fill="#D0CDE1" fill-rule="nonzero" points="258.944762 138.172667 292.997638 138.172667 292.997638 170.564819 258.944762 170.564819"></polygon>
            <polygon id="Path" fill="#FFFFFF" fill-rule="nonzero" points="262.814407 142.042312 289.127993 142.042312 289.127993 162.164466 262.814407 162.164466"></polygon>
            <polygon id="Path" fill="#F2F2F2" fill-rule="nonzero" points="262.788348 164.16172 277.101158 164.16172 277.101158 164.915025 262.788348 164.915025"></polygon>
            <polygon id="Path" fill="#F2F2F2" fill-rule="nonzero" points="262.788348 166.044983 282.750953 166.044983 282.750953 166.798288 262.788348 166.798288"></polygon>
            <circle id="Oval" fill="#3F3D56" fill-rule="nonzero" cx="275.9712" cy="140.05593" r="1.506612"></circle>
            <circle id="Oval" fill="#3F3D56" cx="276" cy="152" r="6"></circle>
            <text id="bolt" font-family="FontAwesome5Pro-Solid, Font Awesome 5 Pro" font-size="8" font-weight="700" fill="#FFFFFF">
                <tspan x="274" y="155">bolt</tspan>
            </text>
        </g>
    </g>
</svg>