<?xml version="1.0" encoding="UTF-8"?>
<svg xmlns="http://www.w3.org/2000/svg" xmlns:xlink="http://www.w3.org/1999/xlink" width="496.56pt" height="403.737pt" viewBox="0 0 496.56 403.737" version="1.1">
<defs>
<clipPath id="clip1">
  <path d="M 461 290 L 496.558594 290 L 496.558594 336 L 461 336 Z M 461 290 "/>
</clipPath>
<clipPath id="clip2">
  <path d="M 172 351 L 225 351 L 225 403.738281 L 172 403.738281 Z M 172 351 "/>
</clipPath>
<clipPath id="clip3">
  <path d="M 438 351 L 491 351 L 491 403.738281 L 438 403.738281 Z M 438 351 "/>
</clipPath>
</defs>
<g id="surface1">
<path style=" stroke:none;fill-rule:nonzero;fill:rgb(100%,100%,100%);fill-opacity:1;" d="M 360.621094 52.597656 C 362.570313 57.199219 363.355469 60.835938 363.246094 62.839844 C 355.6875 58.285156 344.316406 54.410156 338.113281 53.300781 C 334.074219 52.578125 347.292969 49.371094 360.621094 52.597656 M 371.605469 221.933594 C 373.941406 221.441406 376.292969 220.96875 378.644531 220.503906 C 381.105469 220.023438 383.570313 219.558594 386.042969 219.121094 C 384.058594 217.871094 382.066406 216.636719 380.0625 215.414063 C 354.609375 199.929688 327.476563 186.777344 300.664063 174.046875 C 283.746094 166.015625 266.511719 158.03125 248.964844 150.832031 C 264.273438 130.644531 283.871094 113.511719 304.816406 98.832031 C 304.835938 98.820313 304.921875 98.761719 305.050781 98.667969 C 309.636719 104.925781 315.433594 109.183594 318.339844 110.785156 C 324.019531 113.914063 331.175781 116.839844 337.753906 117.734375 C 350.6875 119.492188 361.371094 119.222656 373.1875 117.183594 C 374.253906 117 375.324219 116.871094 376.394531 116.695313 C 383.972656 115.425781 388.820313 115.234375 393.257813 115.152344 C 399.136719 115.042969 402.050781 116.285156 402.742188 116.46875 C 404.84375 117.011719 406.628906 117.910156 407.617188 119.113281 C 408.769531 120.582031 410.003906 121.96875 411.320313 123.234375 C 415.277344 127.171875 419.207031 129.351563 424.902344 129.976563 C 432.238281 130.78125 437.429688 127.914063 441.101563 123.148438 C 442.835938 120.902344 442 117.367188 441.8125 116.675781 C 440.847656 113.132813 438.625 107.980469 437.015625 103.179688 C 436.597656 101.941406 434.578125 98.128906 432.144531 95.542969 C 431.34375 94.6875 430.535156 93.832031 429.726563 92.980469 C 425.949219 88.984375 422.144531 85.019531 418.371094 81.027344 C 403.3125 65.109375 386.984375 50.453125 370.15625 36.441406 C 368.410156 34.988281 366.664063 33.53125 364.914063 32.078125 C 363.644531 31.023438 362.371094 29.976563 361.101563 28.921875 C 360.453125 28.390625 359.808594 27.855469 359.15625 27.324219 C 357.789063 26.199219 356.417969 25.078125 355.039063 23.960938 C 354.496094 23.523438 353.953125 23.085938 353.40625 22.648438 C 352.550781 21.957031 350.59375 20.308594 348.949219 18.992188 C 354.40625 13.546875 358.8125 10.160156 366.632813 5.039063 C 367.753906 4.304688 373.792969 1.082031 373.578125 0.265625 C 373.449219 -0.230469 363.535156 -0.117188 352.171875 1.347656 C 348.179688 1.859375 325.804688 5.164063 310.441406 8.511719 C 294.085938 12.074219 276.816406 17.054688 260.910156 22.0625 C 214.96875 36.527344 171.097656 56.128906 130.921875 82.769531 C 107.835938 98.078125 86.222656 114.972656 65.363281 133.175781 C 55.640625 141.65625 45.980469 150.273438 36.546875 159.128906 C 35.066406 160.515625 33.601563 161.914063 32.136719 163.316406 C 34.144531 163.691406 36.152344 164.085938 38.15625 164.496094 C 54.769531 167.910156 71.199219 172.46875 87.175781 177.035156 C 106.714844 182.617188 126.480469 188.640625 145.59375 196.027344 C 134.699219 206.390625 124.074219 217.003906 113.960938 228.238281 C 94.914063 249.390625 77.15625 271.734375 60.589844 294.875 C 39 325.023438 20.566406 357.535156 4.503906 391.042969 C 2.980469 394.210938 1.476563 397.390625 0 400.574219 C 2.972656 398.195313 5.960938 395.839844 8.972656 393.5 C 34.984375 373.332031 62.40625 354.679688 89.789063 336.660156 C 128.316406 311.304688 169.664063 290.359375 212.570313 273.503906 C 264.300781 253.183594 317.125 233.472656 371.605469 221.933594 "/>
<path style=" stroke:none;fill-rule:nonzero;fill:rgb(100%,100%,100%);fill-opacity:1;" d="M 257.601563 306.0625 C 257.03125 309.375 254.542969 311.796875 251.488281 311.796875 L 243.84375 311.796875 L 245.882813 300.332031 L 252.890625 300.332031 C 256.265625 300.332031 258.175781 302.75 257.601563 306.0625 M 267.792969 306.703125 C 268.558594 302.496094 267.601563 298.800781 264.925781 295.621094 C 262.25 292.371094 258.8125 290.777344 254.542969 290.777344 L 237.347656 290.777344 L 229.515625 335.359375 L 239.707031 335.359375 L 242.253906 320.710938 L 247.792969 320.710938 L 253.589844 335.359375 L 263.910156 335.359375 L 257.410156 319.3125 C 262.824219 317.210938 266.710938 312.625 267.792969 306.703125 "/>
<path style=" stroke:none;fill-rule:nonzero;fill:rgb(100%,100%,100%);fill-opacity:1;" d="M 280.019531 335.359375 L 287.851563 290.777344 L 277.664063 290.777344 L 269.828125 335.359375 Z M 280.019531 335.359375 "/>
<path style=" stroke:none;fill-rule:nonzero;fill:rgb(100%,100%,100%);fill-opacity:1;" d="M 322.4375 312.75 C 321.738281 316.636719 320.082031 319.691406 317.40625 322.050781 C 314.730469 324.40625 311.480469 325.550781 307.722656 325.550781 L 300.71875 325.550781 L 305.113281 300.585938 L 312.753906 300.585938 C 319.886719 300.585938 323.773438 305.171875 322.4375 312.75 M 314.476563 290.777344 L 296.640625 290.777344 L 288.808594 335.359375 L 306.640625 335.359375 C 313.074219 335.359375 318.679688 333.324219 323.457031 329.3125 C 328.234375 325.234375 331.164063 320.011719 332.246094 313.707031 C 333.328125 307.402344 332.117188 302.050781 328.550781 297.527344 C 325.046875 293.007813 320.335938 290.777344 314.476563 290.777344 "/>
<path style=" stroke:none;fill-rule:nonzero;fill:rgb(100%,100%,100%);fill-opacity:1;" d="M 348.609375 317.589844 L 364.535156 317.589844 L 366.253906 308.039063 L 350.265625 308.039063 L 351.605469 300.585938 L 369.121094 300.585938 L 370.839844 290.777344 L 343.132813 290.777344 L 335.300781 335.363281 L 363.324219 335.363281 L 365.042969 325.550781 L 347.210938 325.550781 Z M 348.609375 317.589844 "/>
<path style=" stroke:none;fill-rule:nonzero;fill:rgb(100%,100%,100%);fill-opacity:1;" d="M 400.773438 335.359375 L 406.886719 300.585938 L 418.351563 300.585938 L 420.070313 290.777344 L 386.953125 290.777344 L 385.234375 300.585938 L 396.695313 300.585938 L 390.582031 335.359375 Z M 400.773438 335.359375 "/>
<path style=" stroke:none;fill-rule:nonzero;fill:rgb(100%,100%,100%);fill-opacity:1;" d="M 435.863281 290.777344 L 425.671875 290.777344 L 417.839844 335.359375 L 428.03125 335.359375 L 431.148438 317.65625 L 445.164063 317.65625 L 442.042969 335.359375 L 452.230469 335.359375 L 460.066406 290.777344 L 449.875 290.777344 L 446.882813 307.847656 L 432.871094 307.847656 Z M 435.863281 290.777344 "/>
<g clip-path="url(#clip1)" clip-rule="nonzero">
<path style=" stroke:none;fill-rule:nonzero;fill:rgb(100%,100%,100%);fill-opacity:1;" d="M 494.839844 300.585938 L 496.558594 290.777344 L 468.855469 290.777344 L 461.019531 335.359375 L 489.042969 335.359375 L 490.765625 325.550781 L 472.929688 325.550781 L 474.332031 317.589844 L 490.253906 317.589844 L 491.972656 308.039063 L 475.988281 308.039063 L 477.324219 300.585938 Z M 494.839844 300.585938 "/>
</g>
<path style=" stroke:none;fill-rule:nonzero;fill:rgb(100%,100%,100%);fill-opacity:1;" d="M 133.351563 352.988281 L 121.980469 352.988281 L 115.15625 391.796875 L 113.238281 402.742188 L 142.378906 402.742188 L 144.296875 391.796875 L 126.527344 391.796875 Z M 133.351563 352.988281 "/>
<path style=" stroke:none;fill-rule:nonzero;fill:rgb(100%,100%,100%);fill-opacity:1;" d="M 148.984375 402.742188 L 160.355469 402.742188 L 169.101563 352.988281 L 157.726563 352.988281 Z M 148.984375 402.742188 "/>
<g clip-path="url(#clip2)" clip-rule="nonzero">
<path style=" stroke:none;fill-rule:nonzero;fill:rgb(100%,100%,100%);fill-opacity:1;" d="M 198.027344 384.972656 L 210.820313 384.972656 C 208.191406 390.089844 203.355469 392.648438 196.25 392.648438 C 191.84375 392.648438 188.503906 391.296875 186.300781 388.597656 C 184.097656 385.898438 183.457031 382.34375 184.238281 377.867188 C 185.019531 373.386719 186.9375 369.832031 189.996094 367.132813 C 193.125 364.433594 196.820313 363.082031 201.15625 363.082031 C 206.628906 363.082031 210.464844 365.214844 212.742188 369.410156 L 223.1875 363.933594 C 219.492188 356.328125 212.242188 351.996094 202.363281 351.996094 C 194.96875 351.996094 188.503906 354.339844 182.960938 359.101563 C 177.484375 363.863281 174.074219 369.832031 172.867188 377.15625 C 171.660156 384.546875 173.082031 390.800781 177.273438 395.992188 C 181.464844 401.179688 187.4375 403.738281 195.113281 403.738281 C 202.503906 403.738281 208.832031 401.605469 214.089844 397.269531 C 219.421875 392.933594 222.691406 386.890625 223.96875 379.285156 L 224.679688 375.023438 L 199.734375 375.023438 Z M 198.027344 384.972656 "/>
</g>
<path style=" stroke:none;fill-rule:nonzero;fill:rgb(100%,100%,100%);fill-opacity:1;" d="M 260.285156 372.035156 L 244.648438 372.035156 L 247.992188 352.988281 L 236.617188 352.988281 L 227.878906 402.742188 L 239.25 402.742188 L 242.730469 382.984375 L 258.367188 382.984375 L 254.886719 402.742188 L 266.257813 402.742188 L 275 352.988281 L 263.628906 352.988281 Z M 260.285156 372.035156 "/>
<path style=" stroke:none;fill-rule:nonzero;fill:rgb(100%,100%,100%);fill-opacity:1;" d="M 318.566406 352.988281 L 281.605469 352.988281 L 279.6875 363.933594 L 292.480469 363.933594 L 285.660156 402.742188 L 297.03125 402.742188 L 303.851563 363.933594 L 316.648438 363.933594 Z M 318.566406 352.988281 "/>
<path style=" stroke:none;fill-rule:nonzero;fill:rgb(100%,100%,100%);fill-opacity:1;" d="M 347.988281 380.921875 L 333.703125 352.988281 L 325.175781 352.988281 L 316.429688 402.742188 L 327.800781 402.742188 L 332.777344 374.808594 L 346.992188 402.742188 L 355.523438 402.742188 L 364.265625 352.988281 L 352.890625 352.988281 Z M 347.988281 380.921875 "/>
<path style=" stroke:none;fill-rule:nonzero;fill:rgb(100%,100%,100%);fill-opacity:1;" d="M 365.683594 402.742188 L 377.054688 402.742188 L 385.800781 352.988281 L 374.425781 352.988281 Z M 365.683594 402.742188 "/>
<path style=" stroke:none;fill-rule:nonzero;fill:rgb(100%,100%,100%);fill-opacity:1;" d="M 418.777344 380.921875 L 404.492188 352.988281 L 395.960938 352.988281 L 387.21875 402.742188 L 398.589844 402.742188 L 403.566406 374.808594 L 417.78125 402.742188 L 426.308594 402.742188 L 435.050781 352.988281 L 423.679688 352.988281 Z M 418.777344 380.921875 "/>
<g clip-path="url(#clip3)" clip-rule="nonzero">
<path style=" stroke:none;fill-rule:nonzero;fill:rgb(100%,100%,100%);fill-opacity:1;" d="M 463.980469 384.972656 L 476.773438 384.972656 C 474.144531 390.089844 469.308594 392.648438 462.203125 392.648438 C 457.796875 392.648438 454.457031 391.296875 452.25 388.597656 C 450.046875 385.898438 449.410156 382.34375 450.191406 377.867188 C 450.972656 373.386719 452.890625 369.832031 455.949219 367.132813 C 459.074219 364.433594 462.773438 363.082031 467.105469 363.082031 C 472.578125 363.082031 476.417969 365.214844 478.691406 369.410156 L 489.140625 363.933594 C 485.445313 356.328125 478.195313 351.996094 468.316406 351.996094 C 460.921875 351.996094 454.457031 354.339844 448.910156 359.101563 C 443.4375 363.863281 440.027344 369.832031 438.820313 377.15625 C 437.609375 384.546875 439.03125 390.800781 443.226563 395.992188 C 447.417969 401.179688 453.386719 403.738281 461.066406 403.738281 C 468.457031 403.738281 474.785156 401.605469 480.042969 397.269531 C 485.375 392.933594 488.640625 386.890625 489.921875 379.285156 L 490.632813 375.023438 L 465.683594 375.023438 Z M 463.980469 384.972656 "/>
</g>
</g>
</svg>
