<svg id="Layer_1" enable-background="new 0 0 512 512" height="512" viewBox="0 0 512 512" width="512" fill="#FFFFFF" xmlns="http://www.w3.org/2000/svg"><path d="m219.141 64.449c-3.875-1.623-8.677-.058-10.567 4.525-2.15 5.263 1.736 11.028 7.403 11.028 8.594 0 11.327-12.134 3.164-15.553z"/><path d="m434.971 179.113c1.365-94.939-77.738-179.113-178.991-179.113-102.004 0-180.37 85.092-178.992 179.111.06 4.406-2.873-.208 125.447 141.932-29.634 18.107-49.455 50.76-49.455 87.957 0 56.794 46.206 103 103 103s103-46.206 103-103c0-48.459-33.641-89.202-78.794-100.12l38.877-128.664c26.445-25.864 68.254-27.721 96.973-1.032l-103.793 114.97c-4.668 5.17-.918 13.361 5.936 13.361 2.185 0 4.361-.89 5.94-2.639 117.669-130.34 110.792-121.404 110.852-125.763zm-339.01.113c29.148-26.658 70.325-24.908 96.938 1l38.874 128.655c-4.995 1.208-9.848 2.78-14.531 4.688zm247.019 229.774c0 47.972-39.028 87-87 87s-87-39.028-87-87 39.028-87 87-87 87 39.028 87 87zm-95.262-102.668-38.671-127.982c27.723-24.935 67.878-23.912 93.874-.031l-38.68 128.012c-5.504-.438-10.931-.445-16.523.001zm64.32-141.331c-28.257-24.554-70.626-29.081-104.779-5.534-.159-18.163 1.899-36.181 6.169-53.749 1.044-4.293-1.591-8.62-5.884-9.663-4.294-1.044-8.619 1.591-9.663 5.884-4.499 18.508-6.713 37.475-6.632 56.594-30.242-19.978-67.736-19.347-97.188 1.637 8.696-75.247 68.846-135.043 144.25-143.209-7.39 9.761-14.017 20.063-19.757 30.807-2.082 3.897-.611 8.744 3.286 10.826 3.881 2.074 8.735.627 10.826-3.286 6.59-12.335 14.43-24.05 23.329-34.956 26.91 32.962 43.324 72.622 47.599 114.993.416 4.123 3.893 7.198 7.95 7.198 4.757 0 8.444-4.101 7.969-8.803-4.452-44.127-20.963-83.933-45.842-116.775 75.383 8.175 135.514 67.949 144.223 143.173-33.431-23.835-75.878-20.567-105.856 4.863z"/><path d="m253.98 373v-3c0-4.418-3.582-8-8-8s-8 3.582-8 8v3h-5c-4.418 0-8 3.582-8 8s3.582 8 8 8h1v40h-1c-4.418 0-8 3.582-8 8s3.582 8 8 8h5v3c0 4.418 3.582 8 8 8s8-3.582 8-8v-3h4v3c0 4.418 3.582 8 8 8s8-3.582 8-8v-4.933c13.278-5.979 17.193-22.9 7.958-34.067 9.242-11.175 5.308-28.094-7.958-34.067v-4.933c0-4.418-3.582-8-8-8s-8 3.582-8 8v3zm17 50c0 3.308-2.691 6-6 6h-15v-12h15c3.308 0 6 2.692 6 6zm-21-22v-12h15c3.309 0 6 2.692 6 6s-2.691 6-6 6z"/><path d="m182.98 409c0 40.252 32.748 73 73 73s73-32.748 73-73-32.748-73-73-73-73 32.748-73 73zm130 0c0 31.43-25.57 57-57 57s-57-25.57-57-57 25.57-57 57-57 57 25.57 57 57z"/></svg>