<svg height="512" viewBox="0 0 64 64" width="512" xmlns="http://www.w3.org/2000/svg"><path d="m30 12a18 18 0 1 0 18 18 18.021 18.021 0 0 0 -18-18zm0 34a16 16 0 1 1 16-16 16.019 16.019 0 0 1 -16 16z"/><path d="m60.9 53.833-12.221-12.228a22.029 22.029 0 1 0 -7.079 7.074l12.233 12.221a5 5 0 0 0 7.067-7.067zm-50.9-23.833a20 20 0 1 1 20 20 20.023 20.023 0 0 1 -20-20zm49.483 29.483a3.067 3.067 0 0 1 -4.236 0l-11.967-11.958a22.2 22.2 0 0 0 4.245-4.245l11.958 11.967a3 3 0 0 1 0 4.236z"/><path d="m29 2h2v4h-2z"/><path d="m22.271 2.886h2v4h-2z" transform="matrix(.966 -.259 .259 .966 -.472 6.191)"/><path d="m16 5.483h2v4h-2z" transform="matrix(.866 -.5 .5 .866 -1.464 9.503)"/><path d="m10.615 9.615h2v4h-2z" transform="matrix(.707 -.707 .707 .707 -4.811 11.615)"/><path d="m6.483 15h2v4h-2z" transform="matrix(.5 -.866 .866 .5 -10.981 14.98)"/><path d="m3.886 21.271h2v4h-2z" transform="matrix(.259 -.966 .966 .259 -18.856 21.965)"/><path d="m2 29h4v2h-4z"/><path d="m2.886 35.729h4v2h-4z" transform="matrix(.966 -.259 .259 .966 -9.343 2.517)"/><path d="m5.483 42h4v2h-4z" transform="matrix(.866 -.5 .5 .866 -20.498 9.503)"/><path d="m9.615 47.385h4v2h-4z" transform="matrix(.707 -.707 .707 .707 -30.811 22.385)"/><path d="m15 51.516h4v2h-4z" transform="matrix(.5 -.866 .866 .5 -36.982 40.986)"/><path d="m21.271 54.114h4v2h-4z" transform="matrix(.259 -.966 .966 .259 -35.988 63.327)"/><path d="m29 54h2v4h-2z"/><path d="m35.73 53.114h2v4h-2z" transform="matrix(.966 -.259 .259 .966 -13.012 11.383)"/><path d="m54.114 34.729h2v4h-2z" transform="matrix(.259 -.966 .966 .259 5.367 80.454)"/><path d="m54 29h4v2h-4z"/><path d="m53.114 22.271h4v2h-4z" transform="matrix(.966 -.259 .259 .966 -4.146 15.064)"/><path d="m50.516 16h4.001v2h-4.001z" transform="matrix(.866 -.5 .5 .866 -1.465 28.531)"/><path d="m46.385 10.615h4v2h-4z" transform="matrix(.707 -.707 .707 .707 5.958 37.615)"/><path d="m41 6.483h4v2h-4z" transform="matrix(.5 -.866 .866 .5 15.022 40.983)"/><path d="m34.729 3.886h4v2h-4z" transform="matrix(.259 -.966 .966 .259 22.504 39.099)"/><path d="m30 19a11 11 0 1 0 11 11 11.013 11.013 0 0 0 -11-11zm0 20a9 9 0 1 1 9-9 9.011 9.011 0 0 1 -9 9z"/><path d="m32 25v-2h-2v2h-2v-2h-2v2a1 1 0 0 0 -1 1v8a1 1 0 0 0 1 1v2h2v-2h2v2h2v-2a2.987 2.987 0 0 0 2.22-5 2.987 2.987 0 0 0 -2.22-5zm1 3a1 1 0 0 1 -1 1h-5v-2h5a1 1 0 0 1 1 1zm-1 5h-5v-2h5a1 1 0 0 1 0 2z"/></svg>