<svg height="512" viewBox="0 0 64 64" width="512" xmlns="http://www.w3.org/2000/svg"><path d="m32 24a16 16 0 1 0 16 16 16.021 16.021 0 0 0 -16-16zm0 30a14 14 0 1 1 14-14 14.015 14.015 0 0 1 -14 14z"/><path d="m60 22.03v-2.03a5 5 0 0 0 -5-5h-2.96a8.962 8.962 0 0 0 -11.65-4.24 8.986 8.986 0 0 0 -16.41-.82 8.979 8.979 0 0 0 -12.47 5.06h-4.51a5 5 0 0 0 -5 5v34a5 5 0 0 0 5 5h50a5 5 0 0 0 5-5v-28a4.952 4.952 0 0 0 -2-3.97zm-7.23-5.03h2.23a3.009 3.009 0 0 1 3 3v1.1a5.468 5.468 0 0 0 -1-.1h-4.23a8.811 8.811 0 0 0 0-4zm-11.87-4.26a6.967 6.967 0 0 1 9.59 3.63 7.033 7.033 0 0 1 .51 2.63 7.114 7.114 0 0 1 -.29 2h-13.07a8.96 8.96 0 0 0 3.36-7 8.8 8.8 0 0 0 -.1-1.26zm-8.9-5.74a7 7 0 1 1 -7 7 7.008 7.008 0 0 1 7-7zm-18.78 9.25a7 7 0 0 1 6.78-5.25 6.856 6.856 0 0 1 3.27.84 8.931 8.931 0 0 0 3.09 9.16h-12.67a6.939 6.939 0 0 1 -.47-4.75zm-9.22 3.75a3.009 3.009 0 0 1 3-3h4.06c-.03.33-.06.67-.06 1a8.981 8.981 0 0 0 .53 3h-7.53zm56 24h-7a2.006 2.006 0 0 1 -2-2v-6a2.006 2.006 0 0 1 2-2h7zm0-12h-7a4 4 0 0 0 -4 4v6a4 4 0 0 0 4 4h7v8a3.009 3.009 0 0 1 -3 3h-50a3.009 3.009 0 0 1 -3-3v-31h53a3.009 3.009 0 0 1 3 3z"/><path d="m37.97 40a4.985 4.985 0 0 0 -2.97-9v-2h-2v2h-3v-2h-2v2h-3v2h2v14h-2v2h3v2h2v-2h3v2h2v-2a4.985 4.985 0 0 0 2.97-9zm-8.97-7h6a3 3 0 0 1 0 6h-6zm6 14h-6v-6h6a3 3 0 0 1 0 6z"/><path d="m56 42a3 3 0 1 0 -3-3 3 3 0 0 0 3 3zm0-4a1 1 0 1 1 -1 1 1 1 0 0 1 1-1z"/><path d="m6 27v26a3 3 0 0 0 3 3h3v-2h-3a1 1 0 0 1 -1-1v-26a1 1 0 0 1 1-1h3v-2h-3a3 3 0 0 0 -3 3z"/></svg>