<?xml version="1.0" encoding="iso-8859-1"?><svg version="1.1" id="Capa_1" xmlns="http://www.w3.org/2000/svg" xmlns:xlink="http://www.w3.org/1999/xlink" x="0px" y="0px"	 viewBox="0 0 512 512" style="enable-background:new 0 0 512 512;" xml:space="preserve"><g>	<g>		<path d="M482,274.58V255c0-24.485-11.797-46.264-30.002-59.961c0-0.013,0.002-0.026,0.002-0.039v-30c0-41.355-33.645-75-75-75h-15			V45c0-24.813-20.187-45-45-45H135c-24.813,0-45,20.187-45,45v45H60c-33.084,0-60,26.916-60,60v287c0,41.355,33.645,75,75,75h332			c41.355,0,75-33.645,75-75v-17.58c17.459-6.192,30-22.865,30-42.42v-60C512,297.445,499.459,280.772,482,274.58z M362,120h15			c24.813,0,45,20.187,45,45v15c-6.569,0-52.366,0-60,0V120z M240,30h77c8.271,0,15,6.729,15,15v135h-92V30z M180,30h30v150h-30V30z			 M120,45c0-8.271,6.729-15,15-15h15v150h-30V45z M60,120h30v60H60c-16.542,0-30-13.458-30-30S43.458,120,60,120z M452,437			c0,24.813-20.187,45-45,45H75c-24.813,0-45-20.187-45-45V201.928C38.833,207.051,49.075,210,60,210c17.464,0,342.315,0,347,0			c24.813,0,45,20.187,45,45v17h-45c-41.355,0-75,33.645-75,75c0,41.355,33.645,75,75,75h45V437z M482,377c0,8.271-6.729,15-15,15			h-60c-24.813,0-45-20.187-45-45s20.187-45,45-45h60c8.271,0,15,6.729,15,15V377z"/>	</g></g><g>	<g>		<circle cx="407" cy="347" r="15"/>	</g></g><g>	<g>		<path d="M300,317c0-24.813-20.187-45-45-45h-15v-15c0-8.284-6.716-15-15-15s-15,6.716-15,15v15h-45c-8.284,0-15,6.716-15,15			s6.716,15,15,15h15v90h-15c-8.284,0-15,6.716-15,15s6.716,15,15,15h45v15c0,8.284,6.716,15,15,15s15-6.716,15-15v-15h15			c24.813,0,45-20.187,45-45c0-11.517-4.354-22.032-11.495-30C295.646,339.032,300,328.517,300,317z M255,392h-45v-30h45			c8.271,0,15,6.729,15,15S263.271,392,255,392z M255,332h-45v-30h45c8.271,0,15,6.729,15,15S263.271,332,255,332z"/>	</g></g><g></g><g></g><g></g><g></g><g></g><g></g><g></g><g></g><g></g><g></g><g></g><g></g><g></g><g></g><g></g></svg>