<svg height="512" viewBox="0 0 64 64" width="512" fill="#FFFFFF" xmlns="http://www.w3.org/2000/svg"><g id="Business-cryptocurrency-digital-money-3" data-name="Business-cryptocurrency-digital-money"><path d="m61 6h-58a1 1 0 0 0 -1 1v50a1 1 0 0 0 1 1h58a1 1 0 0 0 1-1v-50a1 1 0 0 0 -1-1zm-1 50h-56v-40h56zm0-42h-56v-6h56z"/><circle cx="8" cy="11" r="2"/><circle cx="14" cy="11" r="2"/><circle cx="20" cy="11" r="2"/><path d="m56 50v-23a1 1 0 0 0 -1-1h-6a1 1 0 0 0 -1 1v23h-4v-15a1 1 0 0 0 -1-1h-6a1 1 0 0 0 -1 1v15h-4v-9a1 1 0 0 0 -1-1h-6a1 1 0 0 0 -1 1v9h-6v-10.05a11 11 0 1 0 -2 0v11.05a1 1 0 0 0 1 1h41v-2zm-48-21a9 9 0 1 1 9 9 9.014 9.014 0 0 1 -9-9zm22 21h-4v-8h4zm12 0h-4v-14h4zm12 0h-4v-22h4z"/><path d="m22 27a3.01 3.01 0 0 0 -2-2.82v-1.18h-2v1h-2v-1h-2v1h-2v2h1v6h-1v2h2v1h2v-1h2v1h2v-1.18a3.01 3.01 0 0 0 2-2.82 2.974 2.974 0 0 0 -.78-2 2.974 2.974 0 0 0 .78-2zm-3 5h-4v-2h4a1 1 0 0 1 0 2zm0-4h-4v-2h4a1 1 0 0 1 0 2z"/><path d="m6 43h2v2h-2z"/><path d="m10 43h4v2h-4z"/><path d="m6 47h8v2h-8z"/></g></svg>