<?xml version="1.0"?>
<svg xmlns="http://www.w3.org/2000/svg" viewBox="0 0 64 64" width="512" height="512" fill="#FFFFFF"><g id="outline"><path d="M43,17A11,11,0,1,0,32,28,11.013,11.013,0,0,0,43,17ZM23,17a9,9,0,1,1,9,9A9.01,9.01,0,0,1,23,17Z"/><path d="M33,24h2V22a2.987,2.987,0,0,0,2.22-5A2.987,2.987,0,0,0,35,12V10H33v2H31V10H29v2H27v2h2v6H27v2h2v2h2V22h2Zm3-9a1,1,0,0,1-1,1H31V14h4A1,1,0,0,1,36,15Zm-5,3h4a1,1,0,0,1,0,2H31Z"/><path d="M26,52v4a1,1,0,0,0,.293.707l5,5a1,1,0,0,0,1.414,0l5-5A1,1,0,0,0,38,56V34h2a1,1,0,0,0,.707-1.707L38.74,30.326A14.815,14.815,0,0,0,47,17a15,15,0,0,0-30,0,14.815,14.815,0,0,0,8.26,13.326l-1.967,1.967A1,1,0,0,0,24,34h3v.586l-1.707,1.707A1,1,0,0,0,25,37v3a1,1,0,0,0,.629.929l3.348,1.339L26.4,44.2a1,1,0,0,0-.4.8v3a1,1,0,0,0,.445.832L28.2,50l-1.752,1.168A1,1,0,0,0,26,52Zm2,.535,2.555-1.7a1,1,0,0,0,0-1.664L28,47.465V45.5l3.6-2.7a1,1,0,0,0-.229-1.729L27,39.323V37.414l1.707-1.707A1,1,0,0,0,29,35V33a1,1,0,0,0-1-1H26.414l1.293-1.293a1,1,0,0,0-.35-1.641A12.86,12.86,0,0,1,19,17a13,13,0,0,1,26,0,12.86,12.86,0,0,1-8.357,12.066,1,1,0,0,0-.35,1.641L37.586,32H37a1,1,0,0,0-1,1V55.586l-3,3V45H31V58.586l-3-3Z"/><rect x="31" y="31" width="2" height="8"/><path d="M17,26a1,1,0,0,0-2,0,3,3,0,0,1-3,3,1,1,0,0,0,0,2,3,3,0,0,1,3,3,1,1,0,0,0,2,0,3,3,0,0,1,3-3,1,1,0,0,0,0-2A3,3,0,0,1,17,26Zm-1,5.031A4.988,4.988,0,0,0,14.969,30,4.988,4.988,0,0,0,16,28.969,4.988,4.988,0,0,0,17.031,30,4.988,4.988,0,0,0,16,31.031Z"/><path d="M41,39a3,3,0,0,1,3,3,1,1,0,0,0,2,0,3,3,0,0,1,3-3,1,1,0,0,0,0-2,3,3,0,0,1-3-3,1,1,0,0,0-2,0,3,3,0,0,1-3,3,1,1,0,0,0,0,2Zm4-2.031A4.988,4.988,0,0,0,46.031,38,4.988,4.988,0,0,0,45,39.031,4.988,4.988,0,0,0,43.969,38,4.988,4.988,0,0,0,45,36.969Z"/></g></svg>
