<?xml version="1.0" encoding="iso-8859-1"?>
<!-- Generator: Adobe Illustrator 19.0.0, SVG Export Plug-In . SVG Version: 6.00 Build 0)  -->
<svg version="1.1" id="Capa_1" xmlns="http://www.w3.org/2000/svg" xmlns:xlink="http://www.w3.org/1999/xlink" x="0px" y="0px"
	 viewBox="0 0 499.312 499.312" fill="#FFFFFF" style="enable-background:new 0 0 499.312 499.312;" xml:space="preserve">
<g>
	<g>
		<path d="M499.312,35.312L464,0l-83.28,83.28C356.6,57.904,323.088,43.312,288,43.312c-35.296,0-68.32,14.376-92.424,39.624
			C182.616,63.872,160.752,51.312,136,51.312H72c-39.704,0-72,32.304-72,72v96c0,13.232,10.768,24,24,24h40v68.28l19.448,12.96
			l-22.76,22.76l24,24l-24,24l24,24L64,440v13.528l27.472,45.784h25.064L144,453.528V243.312h38.232
			c23.92,35.12,63.096,56,105.768,56c70.576,0,128-57.424,128-128c0-15.36-2.752-30.352-8.064-44.624L499.312,35.312z M128,449.096
			l-20.528,34.216h-6.936L80,449.096v-2.472l27.312-27.312l-24-24l24-24l-24-24l25.24-25.24L80,303.032v-59.72h48V449.096z
			 M192,219.312c0,4.408-3.584,8-8,8H24c-4.416,0-8-3.592-8-8v-96c0-30.88,25.128-56,56-56h64c30.872,0,56,25.12,56,56V219.312z
			 M464,22.624l12.688,12.688L288,224l-44.688-44.688L256,166.624l32,32L464,22.624z M288,283.312
			c-35.648,0-68.512-16.64-89.632-44.896c5.816-4.384,9.632-11.28,9.632-19.104v-96c0-8.848-1.68-17.296-4.616-25.136
			C224.72,73.496,255.24,59.312,288,59.312c30.832,0,60.296,12.872,81.424,35.264L288,176l-32-32l-35.312,35.312L288,246.624
			L395.304,139.32c3.08,10.344,4.696,21.056,4.696,31.992C400,233.072,349.76,283.312,288,283.312z"/>
	</g>
</g>
<g>
	<g>
		<path d="M128,99.312H80c-17.648,0-32,14.352-32,32s14.352,32,32,32h48c17.648,0,32-14.352,32-32S145.648,99.312,128,99.312z
			 M128,147.312H80c-8.824,0-16-7.176-16-16c0-8.824,7.176-16,16-16h48c8.824,0,16,7.176,16,16S136.824,147.312,128,147.312z"/>
	</g>
</g>
<g>
	<g>
		<rect x="160" y="195.312" width="16" height="16"/>
	</g>
</g>
<g>
	<g>
		<rect x="64" y="195.312" width="80" height="16"/>
	</g>
</g>
<g>
	<g>
		<rect x="32" y="195.312" width="16" height="16"/>
	</g>
</g>
<g>
</g>
<g>
</g>
<g>
</g>
<g>
</g>
<g>
</g>
<g>
</g>
<g>
</g>
<g>
</g>
<g>
</g>
<g>
</g>
<g>
</g>
<g>
</g>
<g>
</g>
<g>
</g>
<g>
</g>
</svg>
