<svg height="512" viewBox="0 0 64 64" width="512" xmlns="http://www.w3.org/2000/svg"><path d="m31 16a16 16 0 1 0 16 16 16.021 16.021 0 0 0 -16-16zm0 30a14 14 0 1 1 14-14 14.015 14.015 0 0 1 -14 14z"/><path d="m31 13a19 19 0 1 0 19 19 19.017 19.017 0 0 0 -19-19zm0 36a17 17 0 1 1 17-17 17.024 17.024 0 0 1 -17 17z"/><path d="m36.97 32a4.985 4.985 0 0 0 -2.97-9v-2h-2v2h-3v-2h-2v2h-3v2h2v14h-2v2h3v2h2v-2h3v2h2v-2a4.985 4.985 0 0 0 2.97-9zm-8.97-7h6a3 3 0 0 1 0 6h-6zm6 14h-6v-6h6a3 3 0 0 1 0 6z"/><path d="m8 14a6 6 0 1 0 -6-6 6.006 6.006 0 0 0 6 6zm0-10a4 4 0 1 1 -4 4 4 4 0 0 1 4-4z"/><path d="m56 14a6 6 0 1 0 -6-6 6.006 6.006 0 0 0 6 6zm0-10a4 4 0 1 1 -4 4 4 4 0 0 1 4-4z"/><path d="m8 50a6 6 0 1 0 6 6 6.006 6.006 0 0 0 -6-6zm0 10a4 4 0 1 1 4-4 4 4 0 0 1 -4 4z"/><path d="m56 50a6 6 0 1 0 6 6 6.006 6.006 0 0 0 -6-6zm0 10a4 4 0 1 1 4-4 4 4 0 0 1 -4 4z"/><path d="m44.964 14.5h7.071v2h-7.071z" transform="matrix(.707 -.707 .707 .707 3.245 38.835)"/><path d="m47.5 44.964h2v7.071h-2z" transform="matrix(.707 -.707 .707 .707 -20.089 48.5)"/><path d="m12.172 48h5.657v2h-5.657z" transform="matrix(.707 -.707 .707 .707 -30.255 24.958)"/><path d="m14 12.172h2v5.657h-2z" transform="matrix(.707 -.707 .707 .707 -6.213 15)"/></svg>