<?xml version="1.0" encoding="iso-8859-1"?><!-- Generator: Adobe Illustrator 22.0.0, SVG Export Plug-In . SVG Version: 6.00 Build 0)  --><svg xmlns="http://www.w3.org/2000/svg" xmlns:xlink="http://www.w3.org/1999/xlink" version="1.1" x="0px" y="0px" viewBox="0 0 60 60" style="enable-background:new 0 0 60 60;" xml:space="preserve" width="512" height="512"><g id="_x32_5-Bitcoin_Settings">	<path d="M34,60h-8c-0.552,0-1-0.448-1-1v-3.5c0-1.151-0.735-2.171-1.786-2.48c-1.62-0.477-3.194-1.128-4.679-1.938   c-0.971-0.529-2.216-0.331-3.028,0.482l-2.477,2.477c-0.39,0.391-1.024,0.391-1.414,0l-5.657-5.657   c-0.391-0.391-0.391-1.023,0-1.414l2.477-2.477c0.812-0.813,1.011-2.058,0.482-3.028c-0.809-1.485-1.461-3.059-1.937-4.679   C6.671,35.734,5.651,35,4.5,35H1c-0.552,0-1-0.448-1-1v-8c0-0.552,0.448-1,1-1h3.5c1.151,0,2.171-0.734,2.48-1.786   c0.477-1.62,1.128-3.194,1.937-4.679c0.529-0.97,0.33-2.215-0.482-3.028l-2.477-2.477c-0.391-0.391-0.391-1.023,0-1.414   l5.657-5.657c0.39-0.391,1.024-0.391,1.414,0l2.477,2.477c0.813,0.812,2.058,1.01,3.028,0.482c1.485-0.809,3.059-1.461,4.679-1.938   C24.265,6.671,25,5.651,25,4.5V1c0-0.552,0.448-1,1-1h8c0.552,0,1,0.448,1,1v3.5c0,1.151,0.735,2.171,1.786,2.48   c1.62,0.477,3.194,1.128,4.679,1.938c0.97,0.527,2.215,0.33,3.028-0.482l2.477-2.477c0.39-0.391,1.024-0.391,1.414,0l5.657,5.657   c0.391,0.391,0.391,1.023,0,1.414l-2.477,2.477c-0.813,0.813-1.011,2.058-0.482,3.028c0.809,1.485,1.461,3.059,1.937,4.679   C53.329,24.266,54.349,25,55.5,25H59c0.552,0,1,0.448,1,1v8c0,0.552-0.448,1-1,1h-3.5c-1.151,0-2.171,0.734-2.48,1.786   c-0.477,1.62-1.128,3.194-1.937,4.679c-0.529,0.97-0.33,2.215,0.482,3.028l2.477,2.477c0.391,0.391,0.391,1.023,0,1.414   l-5.657,5.657c-0.39,0.391-1.024,0.391-1.414,0l-2.477-2.477c-0.813-0.813-2.058-1.01-3.028-0.482   c-1.485,0.809-3.059,1.461-4.679,1.938C35.735,53.329,35,54.349,35,55.5V59C35,59.552,34.552,60,34,60z M27,58h6v-2.5   c0-2.032,1.325-3.841,3.221-4.399c1.485-0.437,2.927-1.033,4.287-1.774c1.743-0.95,3.964-0.611,5.399,0.824l1.77,1.77l4.243-4.243   l-1.77-1.77c-1.435-1.435-1.774-3.656-0.825-5.399c0.741-1.36,1.338-2.803,1.775-4.287C51.659,34.325,53.468,33,55.5,33H58v-6h-2.5   c-2.032,0-3.841-1.325-4.399-3.222c-0.437-1.484-1.034-2.926-1.775-4.287c-0.95-1.744-0.611-3.964,0.825-5.399l1.77-1.77   L47.678,8.08l-1.77,1.77c-1.435,1.436-3.655,1.775-5.399,0.824c-1.36-0.741-2.802-1.338-4.287-1.774C34.325,8.341,33,6.532,33,4.5   V2h-6v2.5c0,2.032-1.325,3.841-3.221,4.399c-1.485,0.437-2.927,1.033-4.287,1.774c-1.743,0.95-3.964,0.611-5.399-0.824l-1.77-1.77   L8.08,12.322l1.77,1.77c1.436,1.436,1.775,3.656,0.825,5.399c-0.741,1.36-1.338,2.803-1.775,4.287C8.341,25.675,6.532,27,4.5,27H2   v6h2.5c2.032,0,3.841,1.325,4.399,3.222c0.437,1.484,1.034,2.926,1.775,4.287c0.95,1.744,0.611,3.964-0.825,5.399l-1.77,1.77   l4.243,4.243l1.77-1.77c1.436-1.435,3.656-1.773,5.399-0.824c1.36,0.741,2.802,1.338,4.287,1.774C25.675,51.659,27,53.468,27,55.5   V58z"/>	<path d="M30,48c-9.925,0-18-8.075-18-18s8.075-18,18-18s18,8.075,18,18S39.925,48,30,48z M30,14c-8.823,0-16,7.178-16,16   s7.177,16,16,16s16-7.178,16-16S38.823,14,30,14z"/>	<path d="M17,31c-0.552,0-1-0.448-1-1c0-7.72,6.28-14,14-14c0.552,0,1,0.448,1,1s-0.448,1-1,1c-6.617,0-12,5.383-12,12   C18,30.552,17.552,31,17,31z"/>	<path d="M30,44c-0.552,0-1-0.448-1-1s0.448-1,1-1c6.617,0,12-5.383,12-12c0-0.552,0.448-1,1-1s1,0.448,1,1C44,37.72,37.72,44,30,44   z"/>	<path d="M32,31h-6c-0.552,0-1-0.448-1-1v-6c0-0.552,0.448-1,1-1h6c2.206,0,4,1.794,4,4S34.206,31,32,31z M27,29h5   c1.103,0,2-0.897,2-2s-0.897-2-2-2h-5V29z"/>	<path d="M32,37h-6c-0.552,0-1-0.448-1-1v-6c0-0.552,0.448-1,1-1h6c2.206,0,4,1.794,4,4S34.206,37,32,37z M27,35h5   c1.103,0,2-0.897,2-2s-0.897-2-2-2h-5V35z"/>	<path d="M28,25c-0.552,0-1-0.448-1-1v-3c0-0.552,0.448-1,1-1s1,0.448,1,1v3C29,24.552,28.552,25,28,25z"/>	<path d="M32,25c-0.552,0-1-0.448-1-1v-3c0-0.552,0.448-1,1-1s1,0.448,1,1v3C33,24.552,32.552,25,32,25z"/>	<path d="M28,40c-0.552,0-1-0.448-1-1v-3c0-0.552,0.448-1,1-1s1,0.448,1,1v3C29,39.552,28.552,40,28,40z"/>	<path d="M32,40c-0.552,0-1-0.448-1-1v-3c0-0.552,0.448-1,1-1s1,0.448,1,1v3C33,39.552,32.552,40,32,40z"/>	<path d="M26,25h-2c-0.552,0-1-0.448-1-1s0.448-1,1-1h2c0.552,0,1,0.448,1,1S26.552,25,26,25z"/>	<path d="M26,37h-2c-0.552,0-1-0.448-1-1s0.448-1,1-1h2c0.552,0,1,0.448,1,1S26.552,37,26,37z"/></g></svg>