<?xml version="1.0" encoding="UTF-8"?>
<svg width="108px" height="118px" viewBox="0 0 108 118" version="1.1" xmlns="http://www.w3.org/2000/svg" xmlns:xlink="http://www.w3.org/1999/xlink">
    <!-- Generator: Sketch 63.1 (92452) - https://sketch.com -->
    <title>Illustration_Step01</title>
    <desc>Created with Sketch.</desc>
    <g id="Loopv0.2" stroke="none" stroke-width="1" fill="none" fill-rule="evenodd">
        <g id="3.1_LoopPage_LoopOut_Flow01" transform="translate(-594.000000, -215.000000)" fill-rule="nonzero">
            <g id="Illustration_Step01" transform="translate(594.000000, 215.000000)">
                <g id="Group-16" transform="translate(23.000000, 0.000000)">
                    <circle id="Oval" fill="#F1F1F1" cx="42.4877419" cy="42.4877419" r="42.4877419"></circle>
                    <path d="M56.0827415,28.5000036 C60.4468211,28.5000036 63.9999285,25.1343958 63.9999285,21.0000215 C63.9999285,16.8656472 60.4468211,13.5000393 56.0827415,13.5000393 C52.9843297,13.5000393 50.5608889,15.4359631 48.9999642,17.1843872 C47.4390396,15.4359631 45.0155987,13.5000393 41.9171869,13.5000393 C37.5531074,13.5000393 34,16.8656472 34,21.0000215 C34,25.1343958 37.5531074,28.5000036 41.9171869,28.5000036 C45.0155987,28.5000036 47.4390396,26.5640798 48.9999642,24.8156557 C50.5608889,26.5640798 52.9843297,28.5000036 56.0827415,28.5000036 Z M41.9171869,24.0000143 C40.0328073,24.0000143 38.4999893,22.6546959 38.4999893,21.0000286 C38.4999893,19.3453471 40.0328073,18.0000286 41.9171869,18.0000286 C43.707771,18.0000286 45.3577763,19.6921938 46.3234264,21.0000286 C45.3671604,22.2937501 43.7031019,24.0000143 41.9171869,24.0000143 Z M56.0827415,24.0000143 C54.2921574,24.0000143 52.6421522,22.3078492 51.676502,21.0000286 C52.6327681,19.7062929 54.2968266,18.0000286 56.0827415,18.0000286 C57.9671212,18.0000286 59.4999392,19.3453471 59.4999392,21.0000286 C59.4999392,22.6546959 57.9671212,24.0000143 56.0827415,24.0000143 Z" id="i" fill="#5E4EA5"></path>
                </g>
                <g id="Group-21" transform="translate(0.000000, 36.000000)">
                    <ellipse id="Oval" fill="#CBCBCB" cx="48.644129" cy="75.1589677" rx="48.644129" ry="6.61766437"></ellipse>
                    <ellipse id="Oval" fill="#000000" opacity="0.1" cx="48.644129" cy="75.1589677" rx="40.8402581" ry="5.55600756"></ellipse>
                    <rect id="Rectangle" fill="#6F6F6F" x="25.2325161" y="6.09470968" width="54.1068387" height="62.9512258"></rect>
                    <rect id="Rectangle" fill="#4A4A4A" x="20" y="1.24344979e-14" width="65.0322581" height="22.3710968"></rect>
                    <rect id="Rectangle" fill="#4A4A4A" x="20" y="26" width="65.0322581" height="22.3710968"></rect>
                    <rect id="Rectangle" fill="#4A4A4A" x="19.7698065" y="52.9179355" width="65.0322581" height="22.3710968"></rect>
                    <rect id="Rectangle" fill="#6ECB48" x="67.6335484" y="3.75354839" width="4.16206452" height="4.16206452"></rect>
                    <rect id="Rectangle" fill="#6ECB48" x="73.6165161" y="3.75354839" width="4.16206452" height="4.16206452"></rect>
                    <rect id="Rectangle" fill="#6ECB48" x="79.5994839" y="3.75354839" width="4.16206452" height="4.16206452"></rect>
                    <rect id="Rectangle" fill="#6ECB48" x="67.6335484" y="30.0265806" width="4.16206452" height="4.16206452"></rect>
                    <rect id="Rectangle" fill="#6ECB48" x="73.6165161" y="30.0265806" width="4.16206452" height="4.16206452"></rect>
                    <rect id="Rectangle" fill="#6ECB48" x="79.5994839" y="30.0265806" width="4.16206452" height="4.16206452"></rect>
                    <rect id="Rectangle" fill="#6ECB48" x="67.6335484" y="56.2996129" width="4.16206452" height="4.16206452"></rect>
                    <rect id="Rectangle" fill="#6ECB48" x="73.6165161" y="56.2996129" width="4.16206452" height="4.16206452"></rect>
                    <rect id="Rectangle" fill="#6ECB48" x="79.5994839" y="56.2996129" width="4.16206452" height="4.16206452"></rect>
                </g>
            </g>
        </g>
    </g>
</svg>