<?xml version="1.0" encoding="UTF-8"?>
<svg width="370px" height="121px" viewBox="0 0 370 121" version="1.1" xmlns="http://www.w3.org/2000/svg" xmlns:xlink="http://www.w3.org/1999/xlink">
    <!-- Generator: Sketch 63.1 (92452) - https://sketch.com -->
    <title>Illustration_Step03</title>
    <desc>Created with Sketch.</desc>
    <defs>
        <linearGradient x1="50%" y1="100%" x2="50%" y2="8.86848147e-15%" id="linearGradient-1">
            <stop stop-color="#808080" stop-opacity="0.25" offset="0%"></stop>
            <stop stop-color="#808080" stop-opacity="0.12" offset="54%"></stop>
            <stop stop-color="#808080" stop-opacity="0.1" offset="100%"></stop>
        </linearGradient>
    </defs>
    <g id="Loopv0.2" stroke="none" stroke-width="1" fill="none" fill-rule="evenodd">
        <g id="3.1_LoopPage_LoopOut_Flow03" transform="translate(-460.000000, -210.000000)">
            <g id="Illustration_Step03" transform="translate(460.000000, 210.000000)">
                <circle id="Oval" fill="#F1F1F1" fill-rule="nonzero" cx="327.487742" cy="57.4877419" r="42.4877419"></circle>
                <path d="M345.082742,43.5000036 C349.446821,43.5000036 352.999928,40.1343958 352.999928,36.0000215 C352.999928,31.8656472 349.446821,28.5000393 345.082742,28.5000393 C341.98433,28.5000393 339.560889,30.4359631 337.999964,32.1843872 C336.43904,30.4359631 334.015599,28.5000393 330.917187,28.5000393 C326.553107,28.5000393 323,31.8656472 323,36.0000215 C323,40.1343958 326.553107,43.5000036 330.917187,43.5000036 C334.015599,43.5000036 336.43904,41.5640798 337.999964,39.8156557 C339.560889,41.5640798 341.98433,43.5000036 345.082742,43.5000036 Z M330.917187,39.0000143 C329.032807,39.0000143 327.499989,37.6546959 327.499989,36.0000286 C327.499989,34.3453471 329.032807,33.0000286 330.917187,33.0000286 C332.707771,33.0000286 334.357776,34.6921938 335.323426,36.0000286 C334.36716,37.2937501 332.703102,39.0000143 330.917187,39.0000143 Z M345.082742,39.0000143 C343.292157,39.0000143 341.642152,37.3078492 340.676502,36.0000286 C341.632768,34.7062929 343.296827,33.0000286 345.082742,33.0000286 C346.967121,33.0000286 348.499939,34.3453471 348.499939,36.0000286 C348.499939,37.6546959 346.967121,39.0000143 345.082742,39.0000143 Z" id="i" fill="#5E4EA5" fill-rule="nonzero"></path>
                <g id="Group-44" transform="translate(113.000000, 79.000000)" fill-rule="nonzero">
                    <polygon id="Path" fill="#4A4A4A" transform="translate(118.400000, 7.089946) scale(-1, 1) translate(-118.400000, -7.089946) " points="234.731878 6.60770626 8.52651283e-14 6.60770626 8.52651283e-14 7.57218541 236.8 7.57218541"></polygon>
                    <polygon id="Path" fill="#D0CDE1" transform="translate(118.400000, 8.960000) scale(-1, 1) translate(-118.400000, -8.960000) " points="113.024 5.376 123.776 5.376 123.776 12.544 113.024 12.544"></polygon>
                    <path d="M120.192,8.96 L105.856,8.96 L105.856,1.86517468e-14 L120.192,1.86517468e-14 L120.192,8.96 Z M106.479304,8.57043501 L119.568696,8.57043501 L119.568696,0.389564988 L106.479304,0.389564988 L106.479304,8.57043501 Z" id="Shape" fill="#4A4A4A" transform="translate(113.024000, 4.480000) scale(-1, 1) translate(-113.024000, -4.480000) "></path>
                </g>
                <g id="Group-43" transform="translate(265.000000, 50.000000)">
                    <polygon id="Path" fill="#CBCBCB" fill-rule="nonzero" points="-9.84073267e-14 7.36243469 92.3919279 7.36243469 92.3919279 70.3073253 -1.13686838e-13 70.3073253"></polygon>
                    <path d="M97.5448374,1.70530257e-13 L6.62592538,1.70530257e-13 C6.01615907,0.000922175294 5.52114394,0.495001701 5.52114394,1.104768 L5.52114394,62.57664 C5.52114394,62.8696481 5.63752746,63.150658 5.84471672,63.3578447 C6.05190598,63.5650315 6.3329173,63.681408 6.62592538,63.681408 L97.5448374,63.681408 C97.8378436,63.681408 98.1188523,63.5650282 98.3260389,63.3578415 C98.5332256,63.1506549 98.6496054,62.8696462 98.6496054,62.57664 L98.6496054,1.104768 C98.6496054,0.495005713 98.1545997,0.000926622272 97.5448374,1.70530257e-13 L97.5448374,1.70530257e-13 Z M97.9130952,62.57664 C97.9130952,62.6744022 97.8747043,62.7682496 97.8055756,62.8373783 C97.736447,62.9065069 97.6425996,62.9448978 97.5448374,62.9448978 L6.62592538,62.9448978 C6.52816341,62.9448978 6.4343164,62.906506 6.3651879,62.8373775 C6.29605941,62.768249 6.25766754,62.674402 6.25766754,62.57664 L6.25766754,1.104768 C6.25766754,0.901512883 6.42267026,0.736512 6.62592538,0.736512 L97.5448374,0.736512 C97.7480931,0.736512 97.9130952,0.901512271 97.9130952,1.104768 L97.9130952,62.57664 Z" id="Shape" fill="#4A4A4A" fill-rule="nonzero"></path>
                    <rect id="Rectangle" fill="#4A4A4A" fill-rule="nonzero" x="10.3066764" y="43.4358624" width="41.5947948" height="4.78524211" rx="0.5376"></rect>
                    <path d="M89.8141359,39.3872559 L76.5649839,39.3872559 C76.2719769,39.3872559 75.9909677,39.5036372 75.7837792,39.7108232 C75.5765907,39.9180091 75.4602025,40.1990169 75.4602025,40.4920239 L75.4602025,50.7978159 C75.4602025,51.090824 75.576586,51.3718339 75.7837753,51.5790207 C75.9909645,51.7862074 76.2719759,51.9025839 76.5649839,51.9025839 L89.8141359,51.9025839 C90.107143,51.9025839 90.3881533,51.7862079 90.5953406,51.5790206 C90.8025279,51.3718333 90.9189039,51.090823 90.9189039,50.7978159 L90.9189039,40.4920239 C90.9189039,40.199018 90.8025232,39.9180097 90.5953367,39.7108232 C90.3881502,39.5036367 90.1071419,39.3872559 89.8141359,39.3872559 Z M90.1823938,50.7978159 C90.182087,51.0010717 90.0173917,51.165767 89.8141359,51.1660719 L76.5649839,51.1660719 C76.3617256,51.165767 76.1970256,51.0010743 76.19671,50.7978159 L76.19671,40.4920239 C76.1964064,40.3942603 76.2351088,40.3004129 76.30424,40.2312847 C76.3733712,40.1621565 76.4672203,40.1234582 76.5649839,40.1237661 L89.8141359,40.1237661 C89.9118981,40.1234582 90.0057456,40.162157 90.0748742,40.2312857 C90.1440029,40.3004143 90.1827017,40.3942617 90.1823938,40.4920239 L90.1823938,50.7978159 Z" id="Shape" fill="#4A4A4A" fill-rule="nonzero"></path>
                    <rect id="Rectangle" fill="#4A4A4A" fill-rule="nonzero" x="78.6733409" y="41.7652758" width="9.03249715" height="1.86879168" rx="0.5376"></rect>
                    <rect id="Rectangle" fill="#4A4A4A" fill-rule="nonzero" x="78.6733409" y="44.7100416" width="9.03249715" height="1.86879168" rx="0.5376"></rect>
                    <rect id="Rectangle" fill="#4A4A4A" fill-rule="nonzero" x="78.6733409" y="47.6548047" width="9.03249715" height="1.86879168" rx="0.5376"></rect>
                    <rect id="Rectangle" fill="#4A4A4A" fill-rule="nonzero" x="11.4109632" y="4.41773875" width="19.1409684" height="8.09810266" rx="0.5376"></rect>
                    <circle id="Oval" fill="#F2F2F2" fill-rule="nonzero" cx="47.2929593" cy="42.2294561" r="12.9683743"></circle>
                    <path d="M50.1798649,51.9764517 C43.6553251,51.9764517 37.7732336,48.0461636 35.2764005,42.0182748 C32.7795674,35.990386 34.1597014,29.0519859 38.773248,24.4384399 C43.3867946,19.824894 50.3251948,18.4447609 56.3530833,20.9415948 C62.3809718,23.4384287 66.3112582,29.3205207 66.3112582,35.8450605 C66.3011721,44.7500015 59.0848059,51.9663668 50.1798649,51.9764517 L50.1798649,51.9764517 Z M50.1798649,19.9245354 C41.3872016,19.9245354 34.2593397,27.0523972 34.2593397,35.8450605 C34.2593397,44.6377237 41.3872016,51.7655856 50.1798649,51.7655856 C58.9725281,51.7655856 66.10039,44.6377237 66.10039,35.8450605 C66.0904567,27.056515 58.9684103,19.9344686 50.1798649,19.9245354 L50.1798649,19.9245354 Z" id="Shape" fill="#4A4A4A" fill-rule="nonzero"></path>
                    <g id="Group-23" transform="translate(5.000000, 0.001193)">
                        <g id="Group-22">
                            <g id="Group" transform="translate(0.378134, 0.000000)"></g>
                        </g>
                        <g id="Group-24" transform="translate(29.048000, 19.712000)"></g>
                    </g>
                    <path d="M46.60483,51.432122 C46.8713708,51.432122 47.1252368,51.2924832 47.2648756,51.0513229 L52.8499289,41.4044125 C53.145042,40.8998413 52.7801095,40.2620153 52.1930443,40.2620153 L48.5310139,40.2620153 L49.8828693,36.1430446 C50.0098023,35.6606929 49.6448699,35.184694 49.1466515,35.184694 L44.5770624,35.184694 C44.1962633,35.184694 43.8725779,35.4671324 43.8218171,35.8447396 L42.8063528,43.4607214 C42.7460473,43.9176927 43.1014659,44.3238722 43.5615982,44.3238722 L47.3283421,44.3238722 L45.8654203,50.4959909 C45.751193,50.9783426 46.1192864,51.432122 46.60483,51.432122 Z" id="b" fill="#5B5B5B" fill-rule="nonzero" transform="translate(47.877046, 43.308408) rotate(14.000000) translate(-47.877046, -43.308408) "></path>
                </g>
                <g id="Group-34" fill-rule="nonzero">
                    <g id="Group-31">
                        <g id="Group-2">
                            <rect id="Rectangle" fill="#E6E6E6" x="0" y="0" width="90.1490688" height="100.616012"></rect>
                            <rect id="Rectangle" fill="#FFFFFF" x="1.48932403" y="67.1775068" width="87.1682273" height="31.2472904"></rect>
                            <rect id="Rectangle" fill="#C4B7FF" x="8.64422093" y="74.5890324" width="51.2" height="16.0118784"></rect>
                            <circle id="Oval" fill="#6C63FF" cx="76.317438" cy="82.4918815" r="8.15070413"></circle>
                            <rect id="Rectangle" fill="#FFFFFF" x="1.48932403" y="34.712875" width="87.1682273" height="31.2472904"></rect>
                            <rect id="Rectangle" fill="#C4B7FF" x="8.64422093" y="42.1244006" width="51.2" height="16.0118784"></rect>
                            <circle id="Oval" fill="#6C63FF" cx="76.317438" cy="50.0294431" r="8.15070413"></circle>
                            <rect id="Rectangle" fill="#FFFFFF" x="1.48932403" y="2.2482432" width="87.1682273" height="31.2472904"></rect>
                            <rect id="Rectangle" fill="#C4B7FF" x="8.64422093" y="9.66196224" width="51.2" height="16.0118784"></rect>
                            <rect id="Rectangle" fill="#5E4EA5" x="8.64422093" y="74.5890324" width="24" height="16.0118784"></rect>
                            <rect id="Rectangle" fill="#5E4EA5" x="8.64422093" y="42.1244006" width="36.8" height="16.0118784"></rect>
                            <rect id="Rectangle" fill="#5E4EA5" x="8.64422093" y="9.66196224" width="51.2" height="16.0118784"></rect>
                            <circle id="Oval" fill="url(#linearGradient-1)" cx="76.317438" cy="17.5648113" r="8.78679245"></circle>
                            <circle id="Oval" fill="url(#linearGradient-1)" cx="76.317438" cy="50.2465905" r="8.78679245"></circle>
                            <circle id="Oval" fill="url(#linearGradient-1)" cx="76.317438" cy="82.7090289" r="8.78679245"></circle>
                            <circle id="Oval" fill="#9B9B9B" cx="76.317438" cy="17.5648113" r="8.15070413"></circle>
                        </g>
                        <g id="Group" transform="translate(60.115627, 35.744427)">
                            <path d="M133.318807,1.04548939 L82.5936439,1.04548939 L82.5936439,0 L59.5928852,0 L59.5928852,1.04548939 L8.65861943,1.04548939 C7.74861523,1.04548887 6.87588228,1.4069864 6.23241214,2.05045654 C5.58894199,2.69392669 5.22744498,3.56665964 5.22744498,4.47666384 L5.22744498,73.9350108 C5.22744498,74.8450173 5.5889387,75.7177532 6.23240879,76.3612266 C6.87587888,77.0047 7.74861298,77.3662028 8.65861943,77.3662028 L133.318807,77.3662028 C135.213795,77.3662028 136.749981,75.8300048 136.749981,73.9350167 L136.749981,4.47666384 C136.749981,3.56665964 136.388484,2.69392669 135.745014,2.05045654 C135.101544,1.4069864 134.228811,1.04548887 133.318807,1.04548939 Z" id="Path" fill="#4A4A4A"></path>
                            <rect id="Rectangle" fill="#CBCBCB" x="9.82759671" y="7.10932665" width="122.322231" height="69.0022838"></rect>
                            <polygon id="Path" fill="#000000" opacity="0.1" points="97.1677755 76.1116475 9.82763376 76.1116475 9.82763376 7.10937149"></polygon>
                            <circle id="Oval" fill="#F2F2F2" cx="28.9673627" cy="59.1901502" r="11.7579927"></circle>
                            <path d="M31.5848237,68.0274261 C25.669241,68.0274261 20.3361447,64.4639649 18.0723494,58.9986791 C15.808554,53.5333932 17.0598755,47.2425772 21.2428244,43.0596288 C25.4257733,38.8766804 31.7165895,37.6253598 37.1818751,39.8891559 C42.6471607,42.1529519 46.2106203,47.4860487 46.2106203,53.4016314 C46.2014756,61.4754447 39.6586369,68.0182825 31.5848237,68.0274261 L31.5848237,68.0274261 Z M31.5848237,38.967022 C23.612809,38.967022 17.1502143,45.4296168 17.1502143,53.4016314 C17.1502143,61.3736461 23.612809,67.8362409 31.5848237,67.8362409 C39.5568383,67.8362409 46.0194331,61.3736461 46.0194331,53.4016314 C46.010427,45.4333502 39.5531049,38.9760281 31.5848237,38.967022 L31.5848237,38.967022 Z" id="Shape" fill="#3F3D56"></path>
                            <rect id="Rectangle" fill="#4A4A4A" x="99.4252759" y="44.3228077" width="11.4262324" height="2.38757043"></rect>
                            <rect id="Rectangle" fill="#4A4A4A" x="85.6114731" y="25.733862" width="39.05384" height="1.0232453"></rect>
                            <rect id="Rectangle" fill="#4A4A4A" x="85.6114731" y="28.9741379" width="39.05384" height="1.0232453"></rect>
                            <rect id="Rectangle" fill="#4A4A4A" x="85.6114731" y="32.2144137" width="39.05384" height="1.0232453"></rect>
                            <rect id="Rectangle" fill="#4A4A4A" x="85.6114731" y="35.4546875" width="39.05384" height="1.0232453"></rect>
                            <rect id="Rectangle" fill="#4A4A4A" x="85.6114731" y="38.6949634" width="39.05384" height="1.0232453"></rect>
                            <rect id="Rectangle" fill="#F2F2F2" x="119.89017" y="8.50924347" width="4.7751428" height="4.7751428"></rect>
                            <path d="M126.882344,15.5014148 L121.083948,15.5014148 L121.083948,9.70301894 L126.882344,9.70301894 L126.882344,15.5014148 Z M121.336061,15.2493191 L126.63024,15.2493191 L126.63024,9.95513218 L121.336061,9.95513218 L121.336061,15.2493191 Z" id="Shape" fill="#4A4A4A"></path>
                            <path d="M140.184525,74.8570201 L128.246669,74.8570201 L128.246669,73.9969059 C128.246671,73.9516751 128.228704,73.9082962 128.196721,73.876313 C128.164738,73.8443298 128.12136,73.826364 128.076129,73.826364 L123.98315,73.826364 C123.937919,73.826364 123.89454,73.8443305 123.862558,73.8763135 C123.830575,73.9082966 123.812608,73.9516752 123.81261,73.9969059 L123.81261,74.8570201 L121.254497,74.8570201 L121.254497,73.9969059 C121.254499,73.9516752 121.236532,73.9082966 121.204549,73.8763135 C121.172566,73.8443305 121.129188,73.826364 121.083957,73.826364 L116.990978,73.826364 C116.945747,73.826364 116.902368,73.8443297 116.870385,73.8763129 C116.838402,73.908296 116.820435,73.9516749 116.820436,73.9969059 L116.820436,74.8570201 L114.262326,74.8570201 L114.262326,73.9969059 C114.262328,73.9516749 114.24436,73.908296 114.212377,73.8763129 C114.180394,73.8443297 114.137015,73.826364 114.091784,73.826364 L109.998805,73.826364 C109.953574,73.826364 109.910196,73.8443305 109.878213,73.8763135 C109.84623,73.9082966 109.828263,73.9516752 109.828265,73.9969059 L109.828265,74.8570201 L107.270153,74.8570201 L107.270153,73.9969059 C107.270154,73.9516752 107.252187,73.9082966 107.220204,73.8763135 C107.188222,73.8443305 107.144843,73.826364 107.099613,73.826364 L103.00663,73.826364 C102.961399,73.826364 102.91802,73.8443298 102.886037,73.876313 C102.854054,73.9082962 102.836088,73.9516751 102.83609,73.9969059 L102.83609,74.8570201 L100.277981,74.8570201 L100.277981,73.9969059 C100.277983,73.9516749 100.260016,73.908296 100.228032,73.8763129 C100.196049,73.8443297 100.15267,73.826364 100.107439,73.826364 L96.0144621,73.826364 C95.9692311,73.826364 95.9258522,73.8443297 95.8938691,73.8763129 C95.861886,73.908296 95.8439187,73.9516749 95.8439202,73.9969059 L95.8439202,74.8570201 L93.285808,74.8570201 L93.285808,73.9969059 C93.2858095,73.9516752 93.2678425,73.9082966 93.2358598,73.8763135 C93.2038771,73.8443305 93.1604987,73.826364 93.1152681,73.826364 L89.0222888,73.826364 C88.9770581,73.826364 88.9336797,73.8443305 88.901697,73.8763135 C88.8697143,73.9082966 88.8517473,73.9516752 88.8517489,73.9969059 L88.8517489,74.8570201 L86.2936405,74.8570201 L86.2936405,73.9969059 C86.293642,73.9516752 86.2756751,73.9082966 86.2436923,73.8763135 C86.2117096,73.8443305 86.1683312,73.826364 86.1231006,73.826364 L54.061428,73.826364 C54.0161974,73.826364 53.972819,73.8443305 53.9408363,73.8763135 C53.9088536,73.9082966 53.8908866,73.9516752 53.8908881,73.9969059 L53.8908881,74.8570201 L51.3327759,74.8570201 L51.3327759,73.9969059 C51.3327774,73.9516749 51.3148102,73.908296 51.282827,73.8763129 C51.2508439,73.8443297 51.207465,73.826364 51.162234,73.826364 L47.0692664,73.826364 C47.0240354,73.826364 46.9806565,73.8443297 46.9486734,73.8763129 C46.9166903,73.908296 46.898723,73.9516749 46.8987246,73.9969059 L46.8987246,74.8570201 L44.3406025,74.8570201 L44.3406025,73.9969059 C44.3406046,73.9516751 44.3226378,73.9082962 44.290655,73.876313 C44.2586721,73.8443298 44.2152934,73.826364 44.1700626,73.826364 L40.0770834,73.826364 C40.0318527,73.826364 39.9884743,73.8443305 39.9564916,73.8763135 C39.9245089,73.9082966 39.9065419,73.9516752 39.9065435,73.9969059 L39.9065435,74.8570201 L37.3484312,74.8570201 L37.3484312,73.9969059 C37.3484327,73.9516752 37.3304657,73.9082966 37.298483,73.8763135 C37.2665003,73.8443305 37.2231219,73.826364 37.1778913,73.826364 L33.084912,73.826364 C33.039681,73.826364 32.9963021,73.8443297 32.964319,73.8763129 C32.9323358,73.908296 32.9143686,73.9516749 32.9143701,73.9969059 L32.9143701,74.8570201 L30.3562598,74.8570201 L30.3562598,73.9969059 C30.3562614,73.9516749 30.3382941,73.908296 30.306311,73.8763129 C30.2743278,73.8443297 30.2309489,73.826364 30.1857179,73.826364 L26.0927387,73.826364 C26.047508,73.826364 26.0041296,73.8443305 25.9721469,73.8763135 C25.9401642,73.9082966 25.9221972,73.9516752 25.9221988,73.9969059 L25.9221988,74.8570201 L23.3640826,74.8570201 L23.3640826,73.9969059 C23.3640841,73.9516752 23.3461171,73.9082966 23.3141344,73.8763135 C23.2821517,73.8443305 23.2387733,73.826364 23.1935427,73.826364 L19.1005673,73.826364 C19.0553365,73.826364 19.0119578,73.8443298 18.979975,73.876313 C18.9479921,73.9082962 18.9300253,73.9516751 18.9300274,73.9969059 L18.9300274,74.8570201 L16.3719151,74.8570201 L16.3719151,73.9969059 C16.3719167,73.9516749 16.3539494,73.908296 16.3219663,73.8763129 C16.2899831,73.8443297 16.2466042,73.826364 16.2013733,73.826364 L12.1083959,73.826364 C12.0631649,73.826364 12.0197861,73.8443297 11.9878029,73.8763129 C11.9558198,73.908296 11.9378525,73.9516749 11.9378541,73.9969059 L11.9378541,74.8570201 L4.09297732,74.8570201 C1.83248849,74.8570223 0,76.6895106 0,78.9499994 L0,80.8007483 C0,83.061233 1.83249262,84.8937159 4.09297732,84.8937159 L140.184525,84.8937159 C142.44501,84.8937159 144.277504,83.0612333 144.277504,80.8007483 L144.277504,78.9499994 C144.277504,76.6895102 142.445014,74.8570223 140.184525,74.8570201 Z" id="Path" fill="#4A4A4A"></path>
                        </g>
                        <path d="M88.0406297,103.870828 C88.3071704,103.870828 88.5610365,103.731189 88.7006752,103.490029 L94.2857286,93.8431185 C94.5808417,93.3385473 94.2159092,92.7007212 93.6288439,92.7007212 L89.9668136,92.7007212 L91.318669,88.5817505 C91.445602,88.0993988 91.0806695,87.6234 90.5824512,87.6234 L86.0128621,87.6234 C85.632063,87.6234 85.3083776,87.9058383 85.2576168,88.2834455 L84.2421525,95.8994274 C84.1818469,96.3563987 84.5372656,96.7625782 84.9973979,96.7625782 L88.7641417,96.7625782 L87.30122,102.934697 C87.1869926,103.417048 87.555086,103.870828 88.0406297,103.870828 Z" id="b" fill="#5B5B5B" transform="translate(89.312846, 95.747114) rotate(14.000000) translate(-89.312846, -95.747114) "></path>
                    </g>
                </g>
            </g>
        </g>
    </g>
</svg>