<?xml version="1.0" encoding="UTF-8"?>
<svg width="278px" height="118px" viewBox="0 0 278 118" version="1.1" xmlns="http://www.w3.org/2000/svg" xmlns:xlink="http://www.w3.org/1999/xlink">
    <!-- Generator: Sketch 63.1 (92452) - https://sketch.com -->
    <title>Dark_Illustration_Step04</title>
    <desc>Created with Sketch.</desc>
    <g id="Loopv0.2" stroke="none" stroke-width="1" fill="none" fill-rule="evenodd">
        <g id="3.1_LoopPage_LoopOut_Flow04-Copy" transform="translate(-503.000000, -212.000000)">
            <g id="Dark_Illustration_Step04" transform="translate(503.000000, 212.000000)">
                <g id="Loop" fill-rule="nonzero">
                    <g id="Group-16" transform="translate(24.000000, 0.000000)">
                        <circle id="Oval" fill="#222222" cx="42.4877419" cy="42.4877419" r="42.4877419"></circle>
                        <path d="M55.0827415,28.5000036 C59.4468211,28.5000036 62.9999285,25.1343958 62.9999285,21.0000215 C62.9999285,16.8656472 59.4468211,13.5000393 55.0827415,13.5000393 C51.9843297,13.5000393 49.5608889,15.4359631 47.9999642,17.1843872 C46.4390396,15.4359631 44.0155987,13.5000393 40.9171869,13.5000393 C36.5531074,13.5000393 33,16.8656472 33,21.0000215 C33,25.1343958 36.5531074,28.5000036 40.9171869,28.5000036 C44.0155987,28.5000036 46.4390396,26.5640798 47.9999642,24.8156557 C49.5608889,26.5640798 51.9843297,28.5000036 55.0827415,28.5000036 Z M40.9171869,24.0000143 C39.0328073,24.0000143 37.4999893,22.6546959 37.4999893,21.0000286 C37.4999893,19.3453471 39.0328073,18.0000286 40.9171869,18.0000286 C42.707771,18.0000286 44.3577763,19.6921938 45.3234264,21.0000286 C44.3671604,22.2937501 42.7031019,24.0000143 40.9171869,24.0000143 Z M55.0827415,24.0000143 C53.2921574,24.0000143 51.6421522,22.3078492 50.676502,21.0000286 C51.6327681,19.7062929 53.2968266,18.0000286 55.0827415,18.0000286 C56.9671212,18.0000286 58.4999392,19.3453471 58.4999392,21.0000286 C58.4999392,22.6546959 56.9671212,24.0000143 55.0827415,24.0000143 Z" id="i" fill="#5E4EA5"></path>
                    </g>
                    <g id="Group-21" transform="translate(0.000000, 36.000000)">
                        <ellipse id="Oval" fill="#222222" cx="48.644129" cy="75.1589677" rx="48.644129" ry="6.61766437"></ellipse>
                        <ellipse id="Oval" fill="#000000" opacity="0.1" cx="48.644129" cy="75.1589677" rx="40.8402581" ry="5.55600756"></ellipse>
                        <rect id="Rectangle" fill="#6F6F6F" x="25.2325161" y="6.09470968" width="54.1068387" height="62.9512258"></rect>
                        <rect id="Rectangle" fill="#4A4A4A" x="20" y="1.24344979e-14" width="65.0322581" height="22.3710968"></rect>
                        <rect id="Rectangle" fill="#4A4A4A" x="20" y="26" width="65.0322581" height="22.3710968"></rect>
                        <rect id="Rectangle" fill="#4A4A4A" x="19.7698065" y="52.9179355" width="65.0322581" height="22.3710968"></rect>
                        <rect id="Rectangle" fill="#6ECB48" x="67.6335484" y="3.75354839" width="4.16206452" height="4.16206452"></rect>
                        <rect id="Rectangle" fill="#6ECB48" x="73.6165161" y="3.75354839" width="4.16206452" height="4.16206452"></rect>
                        <rect id="Rectangle" fill="#6ECB48" x="79.5994839" y="3.75354839" width="4.16206452" height="4.16206452"></rect>
                        <rect id="Rectangle" fill="#6ECB48" x="67.6335484" y="30.0265806" width="4.16206452" height="4.16206452"></rect>
                        <rect id="Rectangle" fill="#6ECB48" x="73.6165161" y="30.0265806" width="4.16206452" height="4.16206452"></rect>
                        <rect id="Rectangle" fill="#6ECB48" x="79.5994839" y="30.0265806" width="4.16206452" height="4.16206452"></rect>
                        <rect id="Rectangle" fill="#6ECB48" x="67.6335484" y="56.2996129" width="4.16206452" height="4.16206452"></rect>
                        <rect id="Rectangle" fill="#6ECB48" x="73.6165161" y="56.2996129" width="4.16206452" height="4.16206452"></rect>
                        <rect id="Rectangle" fill="#6ECB48" x="79.5994839" y="56.2996129" width="4.16206452" height="4.16206452"></rect>
                    </g>
                </g>
                <g id="Group-44" transform="translate(27.000000, 69.000000)" fill-rule="nonzero">
                    <polygon id="Path" fill="#4A4A4A" transform="translate(118.400000, 7.089946) scale(-1, 1) translate(-118.400000, -7.089946) " points="234.731878 6.60770626 8.52651283e-14 6.60770626 8.52651283e-14 7.57218541 236.8 7.57218541"></polygon>
                    <polygon id="Path" fill="#777777" transform="translate(118.400000, 8.960000) scale(-1, 1) translate(-118.400000, -8.960000) " points="113.024 5.376 123.776 5.376 123.776 12.544 113.024 12.544"></polygon>
                    <path d="M120.192,8.96 L105.856,8.96 L105.856,1.86517468e-14 L120.192,1.86517468e-14 L120.192,8.96 Z M106.479304,8.57043501 L119.568696,8.57043501 L119.568696,0.389564988 L106.479304,0.389564988 L106.479304,8.57043501 Z" id="Shape" fill="#4A4A4A" transform="translate(113.024000, 4.480000) scale(-1, 1) translate(-113.024000, -4.480000) "></path>
                </g>
                <g id="Group-43" transform="translate(179.000000, 40.000000)">
                    <polygon id="Path" fill="#777777" fill-rule="nonzero" points="-9.84073267e-14 7.36243469 92.3919279 7.36243469 92.3919279 70.3073253 -1.13686838e-13 70.3073253"></polygon>
                    <path d="M97.5448374,1.70530257e-13 L6.62592538,1.70530257e-13 C6.01615907,0.000922175294 5.52114394,0.495001701 5.52114394,1.104768 L5.52114394,62.57664 C5.52114394,62.8696481 5.63752746,63.150658 5.84471672,63.3578447 C6.05190598,63.5650315 6.3329173,63.681408 6.62592538,63.681408 L97.5448374,63.681408 C97.8378436,63.681408 98.1188523,63.5650282 98.3260389,63.3578415 C98.5332256,63.1506549 98.6496054,62.8696462 98.6496054,62.57664 L98.6496054,1.104768 C98.6496054,0.495005713 98.1545997,0.000926622272 97.5448374,1.70530257e-13 L97.5448374,1.70530257e-13 Z M97.9130952,62.57664 C97.9130952,62.6744022 97.8747043,62.7682496 97.8055756,62.8373783 C97.736447,62.9065069 97.6425996,62.9448978 97.5448374,62.9448978 L6.62592538,62.9448978 C6.52816341,62.9448978 6.4343164,62.906506 6.3651879,62.8373775 C6.29605941,62.768249 6.25766754,62.674402 6.25766754,62.57664 L6.25766754,1.104768 C6.25766754,0.901512883 6.42267026,0.736512 6.62592538,0.736512 L97.5448374,0.736512 C97.7480931,0.736512 97.9130952,0.901512271 97.9130952,1.104768 L97.9130952,62.57664 Z" id="Shape" fill="#4A4A4A" fill-rule="nonzero"></path>
                    <rect id="Rectangle" fill="#4A4A4A" fill-rule="nonzero" x="10.3066764" y="43.4358624" width="41.5947948" height="4.78524211" rx="0.5376"></rect>
                    <path d="M89.8141359,39.3872559 L76.5649839,39.3872559 C76.2719769,39.3872559 75.9909677,39.5036372 75.7837792,39.7108232 C75.5765907,39.9180091 75.4602025,40.1990169 75.4602025,40.4920239 L75.4602025,50.7978159 C75.4602025,51.090824 75.576586,51.3718339 75.7837753,51.5790207 C75.9909645,51.7862074 76.2719759,51.9025839 76.5649839,51.9025839 L89.8141359,51.9025839 C90.107143,51.9025839 90.3881533,51.7862079 90.5953406,51.5790206 C90.8025279,51.3718333 90.9189039,51.090823 90.9189039,50.7978159 L90.9189039,40.4920239 C90.9189039,40.199018 90.8025232,39.9180097 90.5953367,39.7108232 C90.3881502,39.5036367 90.1071419,39.3872559 89.8141359,39.3872559 Z M90.1823938,50.7978159 C90.182087,51.0010717 90.0173917,51.165767 89.8141359,51.1660719 L76.5649839,51.1660719 C76.3617256,51.165767 76.1970256,51.0010743 76.19671,50.7978159 L76.19671,40.4920239 C76.1964064,40.3942603 76.2351088,40.3004129 76.30424,40.2312847 C76.3733712,40.1621565 76.4672203,40.1234582 76.5649839,40.1237661 L89.8141359,40.1237661 C89.9118981,40.1234582 90.0057456,40.162157 90.0748742,40.2312857 C90.1440029,40.3004143 90.1827017,40.3942617 90.1823938,40.4920239 L90.1823938,50.7978159 Z" id="Shape" fill="#4A4A4A" fill-rule="nonzero"></path>
                    <rect id="Rectangle" fill="#4A4A4A" fill-rule="nonzero" x="78.6733409" y="41.7652758" width="9.03249715" height="1.86879168" rx="0.5376"></rect>
                    <rect id="Rectangle" fill="#4A4A4A" fill-rule="nonzero" x="78.6733409" y="44.7100416" width="9.03249715" height="1.86879168" rx="0.5376"></rect>
                    <rect id="Rectangle" fill="#4A4A4A" fill-rule="nonzero" x="78.6733409" y="47.6548047" width="9.03249715" height="1.86879168" rx="0.5376"></rect>
                    <rect id="Rectangle" fill="#4A4A4A" fill-rule="nonzero" x="11.4109632" y="4.41773875" width="19.1409684" height="8.09810266" rx="0.5376"></rect>
                    <circle id="Oval" fill="#383838" fill-rule="nonzero" cx="47.2929593" cy="42.2294561" r="12.9683743"></circle>
                    <path d="M50.1798649,51.9764517 C43.6553251,51.9764517 37.7732336,48.0461636 35.2764005,42.0182748 C32.7795674,35.990386 34.1597014,29.0519859 38.773248,24.4384399 C43.3867946,19.824894 50.3251948,18.4447609 56.3530833,20.9415948 C62.3809718,23.4384287 66.3112582,29.3205207 66.3112582,35.8450605 C66.3011721,44.7500015 59.0848059,51.9663668 50.1798649,51.9764517 L50.1798649,51.9764517 Z M50.1798649,19.9245354 C41.3872016,19.9245354 34.2593397,27.0523972 34.2593397,35.8450605 C34.2593397,44.6377237 41.3872016,51.7655856 50.1798649,51.7655856 C58.9725281,51.7655856 66.10039,44.6377237 66.10039,35.8450605 C66.0904567,27.056515 58.9684103,19.9344686 50.1798649,19.9245354 L50.1798649,19.9245354 Z" id="Shape" fill="#4A4A4A" fill-rule="nonzero"></path>
                    <g id="Group-23" transform="translate(5.000000, 0.001193)">
                        <g id="Group-22">
                            <g id="Group" transform="translate(0.378134, 0.000000)"></g>
                        </g>
                        <g id="Group-24" transform="translate(29.048000, 19.712000)"></g>
                    </g>
                    <path d="M46.519593,50.6740439 L46.519593,48.5460252 C46.9395628,48.5560039 47.349554,48.5560039 47.739557,48.5560039 L47.739557,50.6740439 L49.2794877,50.6740439 L49.2794877,48.5160274 C51.8593644,48.3760168 53.5840235,47.7260428 53.8140277,45.2961554 C53.9939838,43.3462645 53.0739982,42.476265 51.6140824,42.1263004 C52.4940295,41.6763328 53.054041,40.8763386 52.92404,39.5463928 C52.7540005,37.7264719 51.2593765,37.1164744 49.2794567,36.9465279 L49.2794567,34.4266159 L47.739526,34.4266159 L47.739526,36.8765226 C47.3395134,36.8765226 46.9295222,36.8865012 46.519562,36.8965108 L46.519562,34.4266159 L44.9796003,34.4266159 L44.9796003,36.9465279 C44.413422,36.9636341 43.7539962,36.9552669 41.8897293,36.9465279 L41.8897293,38.5864308 C43.1055717,38.564924 43.7434908,38.4867995 43.8896683,39.2663716 L43.8896683,46.1661239 C43.7968547,46.7846435 43.3018283,46.6955796 42.1997174,46.6760872 L41.8897293,48.5060178 C44.6975648,48.5060178 44.9796313,48.5160274 44.9796313,48.5160274 L44.9796313,50.6740439 L46.519593,50.6740439 Z M46.5495908,41.7662953 L46.5495908,38.6964125 C47.4195593,38.6964125 50.1394466,38.4264629 50.1394466,40.2363742 C50.1394466,41.9663016 47.4195903,41.7662953 46.5495908,41.7662953 Z M46.5495908,46.6860969 L46.5495908,43.306257 C47.5895368,43.306257 50.7741427,43.0162572 50.7741427,44.9962079 C50.7741427,46.9060914 47.5895368,46.6860969 46.5495908,46.6860969 Z" id="B" fill="#E7E7E7" fill-rule="nonzero" transform="translate(47.863077, 42.550330) rotate(14.000000) translate(-47.863077, -42.550330) "></path>
                </g>
            </g>
        </g>
    </g>
</svg>